<svg width="369" height="250" viewBox="0 0 369 250" fill="none" xmlns="http://www.w3.org/2000/svg">
<path d="M355.283 211.448C354.274 211.448 353.264 211.195 352.338 210.691L342.493 204.968C341.904 204.632 341.567 204.043 341.567 203.369C341.567 202.696 341.904 202.107 342.493 201.771L352.338 196.048C354.105 195.039 356.377 195.039 358.229 196.048L368.074 201.771C368.663 202.107 369 202.696 369 203.369C369 204.043 368.663 204.632 368.074 204.968L358.229 210.691C357.303 211.195 356.293 211.448 355.283 211.448ZM355.283 196.89C354.526 196.89 353.769 197.058 353.095 197.479L343.25 203.201C343.166 203.285 343.082 203.369 343.082 203.454C343.082 203.538 343.082 203.622 343.25 203.706L353.095 209.428C354.442 210.186 356.041 210.186 357.387 209.428L367.233 203.706C367.317 203.622 367.401 203.538 367.401 203.454C367.401 203.369 367.401 203.285 367.233 203.201L357.387 197.479C356.714 197.058 355.957 196.89 355.283 196.89Z" fill="url(#paint0_linear_593_25838)"/>
<path d="M327.009 179.133C325.326 179.133 323.727 178.712 322.212 177.871L305.214 168.025C304.372 167.52 303.952 166.763 303.952 165.753C303.952 164.827 304.457 163.986 305.214 163.481L322.212 153.635C325.158 151.952 328.776 151.952 331.721 153.635L348.72 163.481C349.561 163.986 349.982 164.743 349.982 165.753C349.982 166.679 349.477 167.52 348.72 168.025L331.721 177.871C330.291 178.628 328.692 179.133 327.009 179.133ZM323.054 176.44C325.494 177.871 328.524 177.871 331.048 176.44L348.047 166.594C348.467 166.342 348.551 165.921 348.551 165.753C348.551 165.585 348.467 165.164 348.047 164.911L331.048 155.066C328.608 153.635 325.578 153.635 323.054 155.066L306.055 164.911C305.635 165.164 305.551 165.585 305.551 165.753C305.551 165.921 305.635 166.342 306.055 166.594L323.054 176.44Z" fill="url(#paint1_linear_593_25838)"/>
<path d="M23.0572 194.531C21.3742 194.531 19.7754 194.111 18.2607 193.269L1.26226 183.423C0.420753 182.919 0 182.161 0 181.151C0 180.226 0.504903 179.384 1.26226 178.879L18.2607 169.034C21.2059 167.351 24.8244 167.351 27.7697 169.034L44.7681 178.879C45.6096 179.384 46.0303 180.142 46.0303 181.151C46.0303 182.077 45.5254 182.919 44.7681 183.423L27.7697 193.269C26.3391 194.111 24.6561 194.531 23.0572 194.531ZM23.0572 169.454C21.7108 169.454 20.2803 169.791 19.1022 170.548L2.10376 180.394C1.68301 180.647 1.59886 181.067 1.59886 181.236C1.59886 181.404 1.68301 181.825 2.10376 182.077L19.1022 191.923C21.5425 193.353 24.572 193.353 27.0965 191.923L44.0949 182.077C44.5156 181.825 44.5998 181.404 44.5998 181.236C44.5998 181.067 44.5156 180.647 44.0949 180.394L27.0965 170.548C25.7501 169.791 24.4036 169.454 23.0572 169.454Z" fill="url(#paint2_linear_593_25838)"/>
<path opacity="0.6" d="M195.145 237.365L73.6317 167.184C71.8645 166.174 72.117 164.407 74.1366 163.229L152.144 118.208C154.164 117.03 157.277 116.862 159.044 117.956L280.558 188.137C282.325 189.147 282.073 190.914 280.053 192.092L202.045 237.113C200.026 238.207 196.912 238.375 195.145 237.365Z" fill="#5A5E51"/>
<path d="M197.922 249.989C196.492 249.989 195.145 249.653 194.135 249.064L55.3712 169.037C54.2772 168.363 53.604 167.438 53.604 166.344C53.604 165.166 54.4455 163.904 55.9602 163.062L150.545 107.691C153.154 106.176 156.941 106.008 159.213 107.354L297.893 187.466C298.987 188.139 299.66 189.065 299.66 190.158C299.66 191.337 298.819 192.599 297.304 193.44L202.719 248.811C201.372 249.569 199.605 249.989 197.922 249.989ZM155.426 108.112C153.996 108.112 152.481 108.448 151.303 109.122L56.7176 164.493C55.7078 165.082 55.2029 165.755 55.2029 166.428C55.2029 167.017 55.7078 167.438 56.2127 167.69L194.893 247.802C196.66 248.811 199.942 248.643 201.961 247.465L296.547 192.094C297.556 191.505 298.061 190.832 298.061 190.158C298.061 189.569 297.556 189.149 297.051 188.896L158.371 108.785C157.614 108.28 156.52 108.112 155.426 108.112Z" fill="url(#paint3_linear_593_25838)"/>
<path d="M312.872 70.4113L191.779 0.482267C190.938 -0.0226356 190.096 -0.106787 189.339 0.145664L187.067 0.90302L187.824 1.07132C187.487 1.40792 187.235 1.91282 187.067 2.41773L159.718 91.3648C159.044 93.5527 160.054 96.2455 161.906 97.3395L282.998 167.269C283.251 167.437 283.587 167.521 283.924 167.605L283.587 168.278L285.691 167.521C286.533 167.184 287.29 166.427 287.626 165.249L315.06 76.386C315.733 74.1981 314.807 71.5053 312.872 70.4113Z" fill="url(#paint4_radial_593_25838)"/>
<path d="M278.706 170.552L159.213 101.549C157.446 100.539 154.416 100.623 152.312 101.801L75.0621 146.401L72.4535 145.391L73.2108 149.01C73.295 149.514 73.7158 150.104 74.389 150.44L195.061 220.201C196.828 221.211 199.857 221.127 201.961 219.948L279.38 175.265C280.305 174.675 280.894 174.002 281.063 173.329L281.82 169.795L278.706 170.552Z" fill="url(#paint5_radial_593_25838)"/>
<path d="M195.145 217.086L73.6317 146.904C71.8645 145.895 72.117 144.128 74.1366 142.949L152.144 97.9289C154.164 96.7508 157.277 96.5825 159.044 97.6764L280.558 167.858C282.325 168.868 282.073 170.635 280.053 171.813L202.045 216.834C200.026 217.928 196.912 218.096 195.145 217.086Z" fill="url(#paint6_radial_593_25838)"/>
<path d="M280.053 170.802L202.045 215.822C200.026 217 196.912 217.169 195.145 216.075L73.6317 145.893C73.0426 145.557 72.706 145.136 72.5377 144.631C72.2853 145.472 72.6219 146.23 73.6317 146.819L195.145 217C196.912 218.01 200.026 217.926 202.045 216.748L280.053 171.727C281.399 170.97 281.904 169.876 281.652 169.035C281.483 169.624 280.979 170.297 280.053 170.802Z" fill="white"/>
<g opacity="0.4">
<path opacity="0.4" d="M131.612 135.543L127.488 133.187C127.152 133.019 127.236 132.682 127.572 132.43L132.453 129.653C132.874 129.4 133.379 129.4 133.715 129.568L137.839 131.925C138.175 132.093 138.091 132.43 137.755 132.682L132.874 135.459C132.537 135.627 131.948 135.711 131.612 135.543Z" fill="#06033E"/>
<path opacity="0.4" d="M137.923 139.158L133.799 136.802C133.463 136.634 133.547 136.297 133.884 136.045L138.764 133.268C139.185 133.015 139.69 133.015 140.027 133.184L144.15 135.54C144.487 135.708 144.402 136.045 144.066 136.297L139.185 139.074C138.849 139.327 138.259 139.327 137.923 139.158Z" fill="#06033E"/>
<path opacity="0.4" d="M144.234 142.779L140.111 140.423C139.774 140.255 139.858 139.918 140.195 139.666L145.076 136.889C145.496 136.636 146.001 136.636 146.338 136.805L150.461 139.161C150.798 139.329 150.714 139.666 150.377 139.918L145.496 142.695C145.16 142.948 144.571 143.032 144.234 142.779Z" fill="#06033E"/>
<path opacity="0.4" d="M153.07 139.835L148.947 137.479C148.61 137.311 148.694 136.974 149.031 136.722L153.07 134.366C153.491 134.113 153.996 134.113 154.332 134.281L158.456 136.638C158.792 136.806 158.708 137.142 158.371 137.395L154.332 139.751C153.911 140.004 153.322 140.004 153.07 139.835Z" fill="#06033E"/>
<path opacity="0.4" d="M159.381 143.452L155.258 141.096C154.921 140.928 155.006 140.591 155.342 140.339L159.381 137.983C159.802 137.73 160.307 137.73 160.644 137.899L164.767 140.255C165.104 140.423 165.019 140.76 164.683 141.012L160.644 143.368C160.307 143.621 159.718 143.621 159.381 143.452Z" fill="#06033E"/>
<path opacity="0.4" d="M165.693 147.152L161.569 144.795C161.233 144.627 161.317 144.291 161.653 144.038L165.693 141.682C166.113 141.429 166.618 141.429 166.955 141.598L171.078 143.954C171.415 144.122 171.331 144.459 170.994 144.711L166.955 147.068C166.618 147.236 166.029 147.32 165.693 147.152Z" fill="#06033E"/>
<path opacity="0.4" d="M172.004 150.773L167.88 148.417C167.544 148.248 167.628 147.912 167.965 147.659L172.004 145.303C172.425 145.051 172.929 145.051 173.266 145.219L177.389 147.575C177.726 147.743 177.642 148.08 177.305 148.332L173.266 150.689C172.929 150.941 172.34 150.941 172.004 150.773Z" fill="#06033E"/>
<path opacity="0.4" d="M178.399 154.392L174.276 152.036C173.939 151.867 174.023 151.531 174.36 151.278L178.399 148.922C178.82 148.67 179.325 148.67 179.662 148.838L183.785 151.194C184.122 151.363 184.037 151.699 183.701 151.952L179.662 154.308C179.325 154.56 178.736 154.644 178.399 154.392Z" fill="#06033E"/>
<path opacity="0.4" d="M184.711 158.095L180.587 155.739C180.251 155.571 180.335 155.234 180.671 154.981L184.711 152.625C185.131 152.373 185.636 152.373 185.973 152.541L190.096 154.897C190.433 155.066 190.349 155.402 190.012 155.655L185.973 158.011C185.636 158.263 185.047 158.263 184.711 158.095Z" fill="#06033E"/>
<path opacity="0.4" d="M191.022 161.712L186.898 159.356C186.562 159.188 186.646 158.851 186.983 158.599L191.022 156.242C191.443 155.99 191.948 155.99 192.284 156.158L196.408 158.515C196.744 158.683 196.66 159.019 196.323 159.272L192.284 161.628C191.948 161.881 191.358 161.965 191.022 161.712Z" fill="#06033E"/>
<path opacity="0.4" d="M197.417 165.415L193.294 163.059C192.957 162.891 193.042 162.554 193.378 162.302L197.417 159.946C197.838 159.693 198.343 159.693 198.68 159.861L202.803 162.218C203.14 162.386 203.055 162.723 202.719 162.975L198.68 165.331C198.259 165.584 197.754 165.584 197.417 165.415Z" fill="#06033E"/>
<path opacity="0.4" d="M203.728 169.035L199.605 166.678C199.268 166.51 199.353 166.173 199.689 165.921L203.728 163.565C204.149 163.312 204.654 163.312 204.991 163.481L209.114 165.837C209.451 166.005 209.366 166.342 209.03 166.594L204.991 168.95C204.654 169.203 204.065 169.287 203.728 169.035Z" fill="#06033E"/>
<path opacity="0.4" d="M210.04 172.736L205.916 170.379C205.58 170.211 205.664 169.875 206 169.622L210.04 167.266C210.46 167.013 210.965 167.013 211.302 167.182L215.425 169.538C215.762 169.706 215.678 170.043 215.341 170.295L211.302 172.652C210.965 172.904 210.376 172.904 210.04 172.736Z" fill="#06033E"/>
<path opacity="0.4" d="M162.411 138.07L158.287 135.713C157.951 135.545 158.035 135.209 158.371 134.956L162.411 132.6C162.831 132.347 163.336 132.347 163.673 132.516L167.796 134.872C168.133 135.04 168.049 135.377 167.712 135.629L163.673 137.986C163.252 138.238 162.663 138.238 162.411 138.07Z" fill="#06033E"/>
<path opacity="0.4" d="M155.931 134.365L151.808 132.008C151.471 131.84 151.555 131.503 151.892 131.251L155.931 128.895C156.352 128.642 156.857 128.642 157.193 128.811L161.317 131.167C161.653 131.335 161.569 131.672 161.233 131.924L157.193 134.28C156.857 134.533 156.268 134.533 155.931 134.365Z" fill="#06033E"/>
<path opacity="0.4" d="M149.536 130.663L140.7 125.53C140.363 125.362 140.447 125.025 140.784 124.773L144.823 122.416C145.244 122.164 145.749 122.164 146.085 122.332L154.921 127.465C155.258 127.634 155.174 127.97 154.837 128.223L150.798 130.579C150.377 130.831 149.788 130.831 149.536 130.663Z" fill="#06033E"/>
<path opacity="0.4" d="M153.996 126.118L146.843 121.995C146.506 121.826 146.59 121.49 146.927 121.237L150.966 118.881C151.387 118.629 151.892 118.629 152.228 118.797L159.381 122.92C159.718 123.089 159.634 123.425 159.297 123.678L155.258 126.034C154.921 126.286 154.332 126.286 153.996 126.118Z" fill="#06033E"/>
<path opacity="0.4" d="M168.722 141.683L164.598 139.327C164.262 139.158 164.346 138.822 164.683 138.569L168.722 136.213C169.143 135.961 169.647 135.961 169.984 136.129L174.107 138.485C174.444 138.654 174.36 138.99 174.023 139.243L169.984 141.599C169.647 141.851 169.058 141.935 168.722 141.683Z" fill="#06033E"/>
<path opacity="0.4" d="M175.033 145.386L170.91 143.03C170.573 142.862 170.657 142.525 170.994 142.273L175.033 139.916C175.454 139.664 175.959 139.664 176.295 139.832L180.419 142.188C180.755 142.357 180.671 142.693 180.335 142.946L176.295 145.302C175.959 145.554 175.37 145.554 175.033 145.386Z" fill="#06033E"/>
<path opacity="0.4" d="M181.344 149.007L177.221 146.651C176.884 146.483 176.969 146.146 177.305 145.894L181.344 143.537C181.765 143.285 182.27 143.285 182.607 143.453L186.73 145.809C187.067 145.978 186.982 146.314 186.646 146.567L182.607 148.923C182.27 149.175 181.681 149.26 181.344 149.007Z" fill="#06033E"/>
<path opacity="0.4" d="M187.74 152.708L183.617 150.352C183.28 150.184 183.364 149.847 183.701 149.595L187.74 147.239C188.161 146.986 188.666 146.986 189.002 147.154L193.126 149.511C193.462 149.679 193.378 150.016 193.041 150.268L189.002 152.624C188.581 152.877 188.076 152.877 187.74 152.708Z" fill="#06033E"/>
<path opacity="0.4" d="M194.051 156.326L189.928 153.969C189.591 153.801 189.675 153.464 190.012 153.212L194.051 150.856C194.472 150.603 194.977 150.603 195.314 150.772L199.437 153.128C199.774 153.296 199.689 153.633 199.353 153.885L195.314 156.241C194.977 156.494 194.388 156.578 194.051 156.326Z" fill="#06033E"/>
<path opacity="0.4" d="M200.362 160.031L196.239 157.674C195.902 157.506 195.987 157.169 196.323 156.917L200.362 154.561C200.783 154.308 201.288 154.308 201.625 154.477L205.748 156.833C206.085 157.001 206.001 157.338 205.664 157.59L201.625 159.946C201.288 160.199 200.699 160.199 200.362 160.031Z" fill="#06033E"/>
<path opacity="0.4" d="M206.758 163.648L202.635 161.292C202.298 161.123 202.382 160.787 202.719 160.534L206.758 158.178C207.179 157.926 207.684 157.926 208.02 158.094L212.144 160.45C212.48 160.618 212.396 160.955 212.059 161.207L208.02 163.564C207.599 163.816 207.095 163.9 206.758 163.648Z" fill="#06033E"/>
<path opacity="0.4" d="M213.069 167.351L208.946 164.995C208.609 164.826 208.694 164.49 209.03 164.237L213.069 161.881C213.49 161.629 213.995 161.629 214.332 161.797L218.455 164.153C218.792 164.321 218.707 164.658 218.371 164.911L214.332 167.267C213.995 167.519 213.406 167.519 213.069 167.351Z" fill="#06033E"/>
<path opacity="0.4" d="M219.381 170.97L215.257 168.614C214.921 168.446 215.005 168.109 215.341 167.857L219.381 165.5C219.801 165.248 220.306 165.248 220.643 165.416L224.766 167.772C225.103 167.941 225.019 168.277 224.682 168.53L220.643 170.886C220.306 171.138 219.717 171.223 219.381 170.97Z" fill="#06033E"/>
<path opacity="0.4" d="M230.657 177.534L221.737 172.401C221.4 172.233 221.484 171.896 221.821 171.644L225.86 169.287C226.281 169.035 226.786 169.035 227.122 169.203L236.042 174.336C236.379 174.505 236.295 174.841 235.958 175.094L231.919 177.45C231.582 177.702 230.993 177.702 230.657 177.534Z" fill="#06033E"/>
<path opacity="0.4" d="M243.027 170.382L235.453 166.006C235.117 165.838 235.201 165.502 235.537 165.249L239.577 162.893C239.997 162.64 240.502 162.64 240.839 162.809L248.412 167.185C248.749 167.353 248.665 167.689 248.328 167.942L244.289 170.298C243.868 170.551 243.363 170.551 243.027 170.382Z" fill="#06033E"/>
<path opacity="0.4" d="M179.83 141.015L175.706 138.659C175.37 138.49 175.454 138.154 175.791 137.901L179.83 135.545C180.251 135.293 180.755 135.293 181.092 135.461L185.215 137.817C185.552 137.986 185.468 138.322 185.131 138.575L181.092 140.931C180.671 141.183 180.166 141.183 179.83 141.015Z" fill="#06033E"/>
<path opacity="0.4" d="M173.35 137.226L169.227 134.87C168.89 134.701 168.974 134.365 169.311 134.112L173.35 131.756C173.771 131.504 174.276 131.504 174.613 131.672L178.736 134.028C179.072 134.196 178.988 134.533 178.652 134.786L174.613 137.142C174.192 137.394 173.603 137.478 173.35 137.226Z" fill="#06033E"/>
<path opacity="0.4" d="M166.787 133.523L162.663 131.167C162.327 130.998 162.411 130.662 162.747 130.409L166.787 128.053C167.207 127.801 167.712 127.801 168.049 127.969L172.172 130.325C172.509 130.493 172.425 130.83 172.088 131.082L168.049 133.439C167.712 133.691 167.123 133.691 166.787 133.523Z" fill="#06033E"/>
<path opacity="0.4" d="M160.307 129.738L156.183 127.381C155.847 127.213 155.931 126.877 156.268 126.624L160.307 124.268C160.728 124.015 161.232 124.015 161.569 124.184L165.692 126.54C166.029 126.708 165.945 127.045 165.608 127.297L161.569 129.653C161.232 129.906 160.643 129.99 160.307 129.738Z" fill="#06033E"/>
<path opacity="0.4" d="M186.141 144.628L182.018 142.272C181.681 142.104 181.765 141.767 182.102 141.515L186.141 139.158C186.562 138.906 187.067 138.906 187.403 139.074L191.527 141.431C191.863 141.599 191.779 141.935 191.443 142.188L187.403 144.544C187.067 144.797 186.478 144.881 186.141 144.628Z" fill="#06033E"/>
<path opacity="0.4" d="M192.452 148.331L188.329 145.975C187.992 145.807 188.077 145.47 188.413 145.218L192.452 142.862C192.873 142.609 193.378 142.609 193.715 142.777L197.838 145.134C198.175 145.302 198.09 145.639 197.754 145.891L193.715 148.247C193.378 148.5 192.789 148.5 192.452 148.331Z" fill="#06033E"/>
<path opacity="0.4" d="M198.848 151.951L194.724 149.594C194.388 149.426 194.472 149.089 194.809 148.837L198.848 146.481C199.269 146.228 199.773 146.228 200.11 146.397L204.233 148.753C204.57 148.921 204.486 149.258 204.149 149.51L200.11 151.866C199.689 152.119 199.184 152.203 198.848 151.951Z" fill="#06033E"/>
<path opacity="0.4" d="M205.159 155.654L201.036 153.297C200.699 153.129 200.783 152.793 201.12 152.54L205.159 150.184C205.58 149.931 206.085 149.931 206.421 150.1L210.545 152.456C210.881 152.624 210.797 152.961 210.461 153.213L206.421 155.57C206.085 155.822 205.496 155.822 205.159 155.654Z" fill="#06033E"/>
<path opacity="0.4" d="M211.47 159.271L207.347 156.915C207.01 156.746 207.095 156.41 207.431 156.157L211.47 153.801C211.891 153.549 212.396 153.549 212.733 153.717L216.856 156.073C217.193 156.241 217.109 156.578 216.772 156.83L212.733 159.187C212.396 159.439 211.807 159.523 211.47 159.271Z" fill="#06033E"/>
<path opacity="0.4" d="M217.866 162.976L213.742 160.62C213.406 160.451 213.49 160.115 213.827 159.862L217.866 157.506C218.287 157.254 218.792 157.254 219.128 157.422L223.251 159.778C223.588 159.947 223.504 160.283 223.167 160.536L219.128 162.892C218.707 163.144 218.118 163.144 217.866 162.976Z" fill="#06033E"/>
<path opacity="0.4" d="M224.177 166.593L220.054 164.237C219.717 164.069 219.801 163.732 220.138 163.48L224.177 161.123C224.598 160.871 225.103 160.871 225.439 161.039L229.563 163.395C229.899 163.564 229.815 163.9 229.479 164.153L225.439 166.509C225.103 166.761 224.514 166.846 224.177 166.593Z" fill="#06033E"/>
<path opacity="0.4" d="M230.489 170.296L226.365 167.94C226.029 167.772 226.113 167.435 226.449 167.183L230.489 164.826C230.909 164.574 231.414 164.574 231.751 164.742L235.874 167.098C236.211 167.267 236.127 167.603 235.79 167.856L231.751 170.212C231.414 170.465 230.825 170.465 230.489 170.296Z" fill="#06033E"/>
<path opacity="0.4" d="M236.8 173.913L232.676 171.557C232.34 171.389 232.424 171.052 232.76 170.8L236.8 168.444C237.22 168.191 237.725 168.191 238.062 168.359L242.185 170.716C242.522 170.884 242.438 171.221 242.101 171.473L238.062 173.829C237.725 174.082 237.136 174.082 236.8 173.913Z" fill="#06033E"/>
<path opacity="0.4" d="M176.464 131.923L172.34 129.567C172.004 129.399 172.088 129.062 172.425 128.81L176.464 126.453C176.885 126.201 177.39 126.201 177.726 126.369L181.849 128.725C182.186 128.894 182.102 129.23 181.765 129.483L177.726 131.839C177.39 132.091 176.8 132.176 176.464 131.923Z" fill="#06033E"/>
<path opacity="0.4" d="M170.152 128.306L166.029 125.95C165.692 125.781 165.777 125.445 166.113 125.192L170.152 122.836C170.573 122.584 171.078 122.584 171.415 122.752L175.538 125.108C175.875 125.277 175.791 125.613 175.454 125.866L171.415 128.222C171.078 128.474 170.489 128.474 170.152 128.306Z" fill="#06033E"/>
<path opacity="0.4" d="M163.841 124.687L159.718 122.331C159.381 122.162 159.465 121.826 159.802 121.573L163.841 119.217C164.262 118.965 164.767 118.965 165.104 119.133L169.227 121.489C169.564 121.657 169.479 121.994 169.143 122.246L165.104 124.603C164.767 124.855 164.178 124.855 163.841 124.687Z" fill="#06033E"/>
<path opacity="0.4" d="M157.53 121.066L153.407 118.71C153.07 118.541 153.154 118.205 153.491 117.952L157.53 115.596C157.951 115.344 158.456 115.344 158.792 115.512L162.916 117.868C163.252 118.036 163.168 118.373 162.831 118.625L158.876 120.982C158.456 121.234 157.867 121.234 157.53 121.066Z" fill="#06033E"/>
<path opacity="0.4" d="M164.01 117.281L159.886 114.925C159.55 114.757 159.634 114.42 159.97 114.168L161.317 113.41C161.737 113.158 162.242 113.158 162.579 113.326L166.702 115.682C167.039 115.851 166.955 116.187 166.618 116.44L165.272 117.197C164.935 117.45 164.346 117.45 164.01 117.281Z" fill="#06033E"/>
<path opacity="0.4" d="M172.256 122.078L168.133 119.722C167.796 119.554 167.881 119.217 168.217 118.965L169.564 118.207C169.984 117.955 170.489 117.955 170.826 118.123L174.949 120.479C175.286 120.648 175.202 120.984 174.865 121.237L173.519 121.994C173.182 122.247 172.593 122.247 172.256 122.078Z" fill="#06033E"/>
<path opacity="0.4" d="M178.568 125.697L174.444 123.341C174.108 123.173 174.192 122.836 174.528 122.584L175.875 121.826C176.296 121.574 176.8 121.574 177.137 121.742L181.26 124.099C181.597 124.267 181.513 124.603 181.176 124.856L179.83 125.613C179.409 125.866 178.904 125.866 178.568 125.697Z" fill="#06033E"/>
<path opacity="0.4" d="M184.795 129.317L180.671 126.96C180.335 126.792 180.419 126.455 180.756 126.203L182.102 125.446C182.523 125.193 183.028 125.193 183.364 125.361L187.488 127.718C187.824 127.886 187.74 128.223 187.403 128.475L186.057 129.232C185.72 129.485 185.131 129.485 184.795 129.317Z" fill="#06033E"/>
<path opacity="0.4" d="M191.106 132.932L186.983 130.576C186.646 130.407 186.73 130.071 187.067 129.818L188.413 129.061C188.834 128.808 189.339 128.808 189.675 128.977L193.799 131.333C194.135 131.501 194.051 131.838 193.715 132.09L192.368 132.848C192.032 133.1 191.443 133.1 191.106 132.932Z" fill="#06033E"/>
<path opacity="0.4" d="M226.197 153.131L222.073 150.775C221.737 150.606 221.821 150.27 222.158 150.017L223.504 149.26C223.925 149.008 224.43 149.008 224.766 149.176L228.89 151.532C229.226 151.7 229.142 152.037 228.805 152.289L227.459 153.047C227.038 153.299 226.449 153.383 226.197 153.131Z" fill="#06033E"/>
<path opacity="0.4" d="M232.424 156.748L228.301 154.392C227.964 154.224 228.048 153.887 228.385 153.635L229.731 152.877C230.152 152.625 230.657 152.625 230.993 152.793L235.117 155.149C235.453 155.318 235.369 155.654 235.033 155.907L233.686 156.664C233.35 156.916 232.761 157.001 232.424 156.748Z" fill="#06033E"/>
<path opacity="0.4" d="M238.735 160.449L234.612 158.009C234.275 157.841 234.359 157.504 234.696 157.252L236.042 156.494C236.463 156.242 236.968 156.242 237.305 156.41L241.428 158.766C241.765 158.935 241.681 159.271 241.344 159.524L239.997 160.281C239.577 160.534 239.072 160.618 238.735 160.449Z" fill="#06033E"/>
<path opacity="0.4" d="M244.962 164.068L240.839 161.712C240.502 161.544 240.586 161.207 240.923 160.955L242.269 160.198C242.69 159.945 243.195 159.945 243.532 160.113L247.655 162.47C247.992 162.638 247.907 162.975 247.571 163.227L246.224 163.984C245.888 164.237 245.299 164.237 244.962 164.068Z" fill="#06033E"/>
<path opacity="0.4" d="M182.775 135.628L178.652 133.272C178.315 133.104 178.399 132.767 178.736 132.515L182.775 130.158C183.196 129.906 183.701 129.906 184.037 130.074L188.161 132.431C188.497 132.599 188.413 132.935 188.077 133.188L184.037 135.544C183.701 135.797 183.112 135.797 182.775 135.628Z" fill="#06033E"/>
<path opacity="0.4" d="M189.171 139.245L185.047 136.889C184.711 136.721 184.795 136.384 185.131 136.132L189.171 133.776C189.591 133.523 190.096 133.523 190.433 133.692L194.556 136.048C194.893 136.216 194.809 136.553 194.472 136.805L190.433 139.161C190.012 139.414 189.507 139.498 189.171 139.245Z" fill="#06033E"/>
<path opacity="0.4" d="M195.482 142.945L191.358 140.588C191.022 140.42 191.106 140.084 191.443 139.831L195.482 137.475C195.903 137.222 196.407 137.222 196.744 137.391L200.867 139.747C201.204 139.915 201.12 140.252 200.783 140.504L196.744 142.861C196.407 143.113 195.818 143.113 195.482 142.945Z" fill="#06033E"/>
<path opacity="0.4" d="M201.793 146.566L197.67 144.21C197.333 144.041 197.417 143.705 197.754 143.452L201.793 141.096C202.214 140.844 202.719 140.844 203.055 141.012L207.179 143.368C207.515 143.536 207.431 143.873 207.095 144.125L203.055 146.482C202.719 146.734 202.13 146.818 201.793 146.566Z" fill="#06033E"/>
<path opacity="0.4" d="M208.188 150.269L204.065 147.913C203.729 147.744 203.813 147.408 204.149 147.155L208.188 144.799C208.609 144.547 209.114 144.547 209.451 144.715L213.574 147.071C213.911 147.239 213.827 147.576 213.49 147.829L209.451 150.185C209.03 150.437 208.441 150.437 208.188 150.269Z" fill="#06033E"/>
<path opacity="0.4" d="M214.5 153.886L210.376 151.53C210.04 151.362 210.124 151.025 210.461 150.772L214.5 148.416C214.921 148.164 215.425 148.164 215.762 148.332L219.885 150.688C220.222 150.857 220.138 151.193 219.801 151.446L215.762 153.802C215.425 154.054 214.836 154.139 214.5 153.886Z" fill="#06033E"/>
<path opacity="0.4" d="M220.811 157.589L216.688 155.233C216.351 155.065 216.435 154.728 216.772 154.476L220.811 152.119C221.232 151.867 221.737 151.867 222.073 152.035L226.197 154.391C226.533 154.56 226.449 154.896 226.112 155.149L222.073 157.505C221.737 157.757 221.148 157.758 220.811 157.589Z" fill="#06033E"/>
<path opacity="0.4" d="M227.122 161.208L222.999 158.852C222.662 158.684 222.746 158.347 223.083 158.095L227.122 155.739C227.543 155.486 228.048 155.486 228.385 155.654L232.508 158.011C232.845 158.179 232.76 158.516 232.424 158.768L228.385 161.124C228.048 161.377 227.459 161.377 227.122 161.208Z" fill="#06033E"/>
<path opacity="0.4" d="M233.518 164.91L229.394 162.553C229.058 162.385 229.142 162.048 229.479 161.796L233.518 159.44C233.939 159.187 234.444 159.187 234.78 159.356L238.903 161.712C239.24 161.88 239.156 162.217 238.819 162.469L234.78 164.825C234.444 165.078 233.854 165.078 233.518 164.91Z" fill="#06033E"/>
<path opacity="0.4" d="M146.59 136.048L134.473 129.063C134.136 128.895 134.22 128.558 134.557 128.306L138.596 125.949C139.017 125.697 139.522 125.697 139.858 125.865L151.976 132.85C152.313 133.018 152.228 133.355 151.892 133.607L147.853 135.963C147.516 136.216 146.927 136.3 146.59 136.048Z" fill="#06033E"/>
<path opacity="0.4" d="M224.429 180.983L212.312 173.999C211.975 173.83 212.059 173.494 212.396 173.241L216.435 170.885C216.856 170.633 217.361 170.633 217.697 170.801L229.815 177.785C230.152 177.954 230.068 178.29 229.731 178.543L225.692 180.899C225.355 181.151 224.766 181.236 224.429 180.983Z" fill="#06033E"/>
<path opacity="0.4" d="M199.1 174.504L194.977 172.148C194.64 171.98 194.724 171.643 195.061 171.391L199.942 168.614C200.362 168.361 200.867 168.361 201.204 168.529L205.327 170.886C205.664 171.054 205.58 171.391 205.243 171.643L200.362 174.42C200.026 174.672 199.437 174.672 199.1 174.504Z" fill="#06033E"/>
<path opacity="0.4" d="M153.07 147.913L146.506 144.126C146.17 143.958 146.254 143.621 146.59 143.369L151.471 140.592C151.892 140.34 152.397 140.34 152.733 140.508L159.297 144.295C159.634 144.463 159.55 144.8 159.213 145.052L154.332 147.829C153.996 148.081 153.407 148.081 153.07 147.913Z" fill="#06033E"/>
<path opacity="0.4" d="M192.957 170.97L186.393 167.183C186.057 167.015 186.141 166.678 186.478 166.426L191.358 163.649C191.779 163.396 192.284 163.396 192.621 163.565L199.184 167.351C199.521 167.52 199.437 167.856 199.1 168.109L194.219 170.886C193.883 171.138 193.294 171.138 192.957 170.97Z" fill="#06033E"/>
<path opacity="0.4" d="M162.242 153.214L155.679 149.427C155.342 149.259 155.426 148.922 155.763 148.67L160.644 145.893C161.064 145.64 161.569 145.64 161.906 145.809L168.47 149.595C168.806 149.764 168.722 150.1 168.385 150.353L163.505 153.13C163.084 153.382 162.579 153.382 162.242 153.214Z" fill="#06033E"/>
<path opacity="0.4" d="M161.906 145.811L190.433 162.304C190.769 162.472 190.769 162.809 190.433 163.061L185.468 165.923C185.131 166.091 184.542 166.091 184.206 165.923L155.679 149.429L161.906 145.811Z" fill="#06033E"/>
<path opacity="0.4" d="M216.772 181.067L221.316 183.676C221.568 183.844 221.568 184.096 221.232 184.265L219.212 185.443C218.876 185.611 218.455 185.611 218.118 185.527L213.574 182.918C213.322 182.75 213.322 182.498 213.658 182.329L215.678 181.151C216.014 180.983 216.519 180.983 216.772 181.067Z" fill="#06033E"/>
<path opacity="0.4" d="M210.376 177.449L214.92 180.058C215.173 180.226 215.173 180.479 214.836 180.647L212.817 181.825C212.48 181.993 212.059 181.993 211.723 181.909L207.179 179.301C206.926 179.132 206.926 178.88 207.263 178.712L209.282 177.533C209.703 177.281 210.124 177.281 210.376 177.449Z" fill="#06033E"/>
<path opacity="0.4" d="M204.065 173.748L208.609 176.357C208.862 176.525 208.862 176.778 208.525 176.946L206.506 178.124C206.169 178.292 205.748 178.292 205.412 178.208L200.867 175.599C200.615 175.431 200.615 175.179 200.952 175.01L202.971 173.832C203.308 173.58 203.813 173.58 204.065 173.748Z" fill="#06033E"/>
<path opacity="0.4" d="M213.911 175.43L218.455 178.038C218.707 178.207 218.707 178.459 218.371 178.628L216.351 179.806C216.014 179.974 215.594 179.974 215.257 179.89L210.713 177.281C210.461 177.113 210.461 176.86 210.797 176.692L212.817 175.514C213.153 175.261 213.658 175.262 213.911 175.43Z" fill="#06033E"/>
</g>
<g opacity="0.4">
<path opacity="0.4" d="M131.612 135.543L127.488 133.187C127.152 133.019 127.236 132.682 127.572 132.43L132.453 129.653C132.874 129.4 133.379 129.4 133.715 129.568L137.839 131.925C138.175 132.093 138.091 132.43 137.755 132.682L132.874 135.459C132.537 135.627 131.948 135.711 131.612 135.543Z" fill="#232323"/>
<path opacity="0.4" d="M137.923 139.158L133.799 136.802C133.463 136.634 133.547 136.297 133.884 136.045L138.764 133.268C139.185 133.015 139.69 133.015 140.027 133.184L144.15 135.54C144.487 135.708 144.402 136.045 144.066 136.297L139.185 139.074C138.849 139.327 138.259 139.327 137.923 139.158Z" fill="#232323"/>
<path opacity="0.4" d="M144.234 142.779L140.111 140.423C139.774 140.255 139.858 139.918 140.195 139.666L145.076 136.889C145.496 136.636 146.001 136.636 146.338 136.805L150.461 139.161C150.798 139.329 150.714 139.666 150.377 139.918L145.496 142.695C145.16 142.948 144.571 143.032 144.234 142.779Z" fill="#232323"/>
<path opacity="0.4" d="M153.07 139.835L148.947 137.479C148.61 137.311 148.694 136.974 149.031 136.722L153.07 134.366C153.491 134.113 153.996 134.113 154.332 134.281L158.456 136.638C158.792 136.806 158.708 137.142 158.371 137.395L154.332 139.751C153.911 140.004 153.322 140.004 153.07 139.835Z" fill="#232323"/>
<path opacity="0.4" d="M159.381 143.452L155.258 141.096C154.921 140.928 155.006 140.591 155.342 140.339L159.381 137.983C159.802 137.73 160.307 137.73 160.644 137.899L164.767 140.255C165.104 140.423 165.019 140.76 164.683 141.012L160.644 143.368C160.307 143.621 159.718 143.621 159.381 143.452Z" fill="#232323"/>
<path opacity="0.4" d="M165.693 147.152L161.569 144.795C161.233 144.627 161.317 144.291 161.653 144.038L165.693 141.682C166.113 141.429 166.618 141.429 166.955 141.598L171.078 143.954C171.415 144.122 171.331 144.459 170.994 144.711L166.955 147.068C166.618 147.236 166.029 147.32 165.693 147.152Z" fill="#232323"/>
<path opacity="0.4" d="M172.004 150.773L167.88 148.417C167.544 148.248 167.628 147.912 167.965 147.659L172.004 145.303C172.425 145.051 172.929 145.051 173.266 145.219L177.389 147.575C177.726 147.743 177.642 148.08 177.305 148.332L173.266 150.689C172.929 150.941 172.34 150.941 172.004 150.773Z" fill="#232323"/>
<path opacity="0.4" d="M178.399 154.392L174.276 152.036C173.939 151.867 174.023 151.531 174.36 151.278L178.399 148.922C178.82 148.67 179.325 148.67 179.662 148.838L183.785 151.194C184.122 151.363 184.037 151.699 183.701 151.952L179.662 154.308C179.325 154.56 178.736 154.644 178.399 154.392Z" fill="#232323"/>
<path opacity="0.4" d="M184.711 158.095L180.587 155.739C180.251 155.571 180.335 155.234 180.671 154.981L184.711 152.625C185.131 152.373 185.636 152.373 185.973 152.541L190.096 154.897C190.433 155.066 190.349 155.402 190.012 155.655L185.973 158.011C185.636 158.263 185.047 158.263 184.711 158.095Z" fill="#232323"/>
<path opacity="0.4" d="M191.022 161.712L186.898 159.356C186.562 159.188 186.646 158.851 186.983 158.599L191.022 156.242C191.443 155.99 191.948 155.99 192.284 156.158L196.408 158.515C196.744 158.683 196.66 159.019 196.323 159.272L192.284 161.628C191.948 161.881 191.358 161.965 191.022 161.712Z" fill="#232323"/>
<path opacity="0.4" d="M197.417 165.415L193.294 163.059C192.957 162.891 193.042 162.554 193.378 162.302L197.417 159.946C197.838 159.693 198.343 159.693 198.68 159.861L202.803 162.218C203.14 162.386 203.055 162.723 202.719 162.975L198.68 165.331C198.259 165.584 197.754 165.584 197.417 165.415Z" fill="#232323"/>
<path opacity="0.4" d="M203.728 169.035L199.605 166.678C199.268 166.51 199.353 166.173 199.689 165.921L203.728 163.565C204.149 163.312 204.654 163.312 204.991 163.481L209.114 165.837C209.451 166.005 209.366 166.342 209.03 166.594L204.991 168.95C204.654 169.203 204.065 169.287 203.728 169.035Z" fill="#232323"/>
<path opacity="0.4" d="M210.04 172.736L205.916 170.379C205.58 170.211 205.664 169.875 206 169.622L210.04 167.266C210.46 167.013 210.965 167.013 211.302 167.182L215.425 169.538C215.762 169.706 215.678 170.043 215.341 170.295L211.302 172.652C210.965 172.904 210.376 172.904 210.04 172.736Z" fill="#232323"/>
<path opacity="0.4" d="M162.411 138.07L158.287 135.713C157.951 135.545 158.035 135.209 158.371 134.956L162.411 132.6C162.831 132.347 163.336 132.347 163.673 132.516L167.796 134.872C168.133 135.04 168.049 135.377 167.712 135.629L163.673 137.986C163.252 138.238 162.663 138.238 162.411 138.07Z" fill="#232323"/>
<path opacity="0.4" d="M155.931 134.365L151.808 132.008C151.471 131.84 151.555 131.503 151.892 131.251L155.931 128.895C156.352 128.642 156.857 128.642 157.193 128.811L161.317 131.167C161.653 131.335 161.569 131.672 161.233 131.924L157.193 134.28C156.857 134.533 156.268 134.533 155.931 134.365Z" fill="#232323"/>
<path opacity="0.4" d="M149.536 130.663L140.7 125.53C140.363 125.362 140.447 125.025 140.784 124.773L144.823 122.416C145.244 122.164 145.749 122.164 146.085 122.332L154.921 127.465C155.258 127.634 155.174 127.97 154.837 128.223L150.798 130.579C150.377 130.831 149.788 130.831 149.536 130.663Z" fill="#232323"/>
<path opacity="0.4" d="M153.996 126.118L146.843 121.995C146.506 121.826 146.59 121.49 146.927 121.237L150.966 118.881C151.387 118.629 151.892 118.629 152.228 118.797L159.381 122.92C159.718 123.089 159.634 123.425 159.297 123.678L155.258 126.034C154.921 126.286 154.332 126.286 153.996 126.118Z" fill="#232323"/>
<path opacity="0.4" d="M168.722 141.683L164.598 139.327C164.262 139.158 164.346 138.822 164.683 138.569L168.722 136.213C169.143 135.961 169.647 135.961 169.984 136.129L174.107 138.485C174.444 138.654 174.36 138.99 174.023 139.243L169.984 141.599C169.647 141.851 169.058 141.935 168.722 141.683Z" fill="#232323"/>
<path opacity="0.4" d="M175.033 145.386L170.91 143.03C170.573 142.862 170.657 142.525 170.994 142.273L175.033 139.916C175.454 139.664 175.959 139.664 176.295 139.832L180.419 142.188C180.755 142.357 180.671 142.693 180.335 142.946L176.295 145.302C175.959 145.554 175.37 145.554 175.033 145.386Z" fill="#232323"/>
<path opacity="0.4" d="M181.344 149.007L177.221 146.651C176.884 146.483 176.969 146.146 177.305 145.894L181.344 143.537C181.765 143.285 182.27 143.285 182.607 143.453L186.73 145.809C187.067 145.978 186.982 146.314 186.646 146.567L182.607 148.923C182.27 149.175 181.681 149.26 181.344 149.007Z" fill="#232323"/>
<path opacity="0.4" d="M187.74 152.708L183.617 150.352C183.28 150.184 183.364 149.847 183.701 149.595L187.74 147.239C188.161 146.986 188.666 146.986 189.002 147.154L193.126 149.511C193.462 149.679 193.378 150.016 193.041 150.268L189.002 152.624C188.581 152.877 188.076 152.877 187.74 152.708Z" fill="#232323"/>
<path opacity="0.4" d="M194.051 156.326L189.928 153.969C189.591 153.801 189.675 153.464 190.012 153.212L194.051 150.856C194.472 150.603 194.977 150.603 195.314 150.772L199.437 153.128C199.774 153.296 199.689 153.633 199.353 153.885L195.314 156.241C194.977 156.494 194.388 156.578 194.051 156.326Z" fill="#232323"/>
<path opacity="0.4" d="M200.362 160.031L196.239 157.674C195.902 157.506 195.987 157.169 196.323 156.917L200.362 154.561C200.783 154.308 201.288 154.308 201.625 154.477L205.748 156.833C206.085 157.001 206.001 157.338 205.664 157.59L201.625 159.946C201.288 160.199 200.699 160.199 200.362 160.031Z" fill="#232323"/>
<path opacity="0.4" d="M206.758 163.648L202.635 161.292C202.298 161.123 202.382 160.787 202.719 160.534L206.758 158.178C207.179 157.926 207.684 157.926 208.02 158.094L212.144 160.45C212.48 160.618 212.396 160.955 212.059 161.207L208.02 163.564C207.599 163.816 207.095 163.9 206.758 163.648Z" fill="#232323"/>
<path opacity="0.4" d="M213.069 167.351L208.946 164.995C208.609 164.826 208.694 164.49 209.03 164.237L213.069 161.881C213.49 161.629 213.995 161.629 214.332 161.797L218.455 164.153C218.792 164.321 218.707 164.658 218.371 164.911L214.332 167.267C213.995 167.519 213.406 167.519 213.069 167.351Z" fill="#232323"/>
<path opacity="0.4" d="M219.381 170.97L215.257 168.614C214.921 168.446 215.005 168.109 215.341 167.857L219.381 165.5C219.801 165.248 220.306 165.248 220.643 165.416L224.766 167.772C225.103 167.941 225.019 168.277 224.682 168.53L220.643 170.886C220.306 171.138 219.717 171.223 219.381 170.97Z" fill="#232323"/>
<path opacity="0.4" d="M230.657 177.534L221.737 172.401C221.4 172.233 221.484 171.896 221.821 171.644L225.86 169.287C226.281 169.035 226.786 169.035 227.122 169.203L236.042 174.336C236.379 174.505 236.295 174.841 235.958 175.094L231.919 177.45C231.582 177.702 230.993 177.702 230.657 177.534Z" fill="#232323"/>
<path opacity="0.4" d="M243.027 170.382L235.453 166.006C235.117 165.838 235.201 165.502 235.537 165.249L239.577 162.893C239.997 162.64 240.502 162.64 240.839 162.809L248.412 167.185C248.749 167.353 248.665 167.689 248.328 167.942L244.289 170.298C243.868 170.551 243.363 170.551 243.027 170.382Z" fill="#232323"/>
<path opacity="0.4" d="M179.83 141.015L175.706 138.659C175.37 138.49 175.454 138.154 175.791 137.901L179.83 135.545C180.251 135.293 180.755 135.293 181.092 135.461L185.215 137.817C185.552 137.986 185.468 138.322 185.131 138.575L181.092 140.931C180.671 141.183 180.166 141.183 179.83 141.015Z" fill="#232323"/>
<path opacity="0.4" d="M173.35 137.226L169.227 134.87C168.89 134.701 168.974 134.365 169.311 134.112L173.35 131.756C173.771 131.504 174.276 131.504 174.613 131.672L178.736 134.028C179.072 134.196 178.988 134.533 178.652 134.786L174.613 137.142C174.192 137.394 173.603 137.478 173.35 137.226Z" fill="#232323"/>
<path opacity="0.4" d="M166.787 133.523L162.663 131.167C162.327 130.998 162.411 130.662 162.747 130.409L166.787 128.053C167.207 127.801 167.712 127.801 168.049 127.969L172.172 130.325C172.509 130.493 172.425 130.83 172.088 131.082L168.049 133.439C167.712 133.691 167.123 133.691 166.787 133.523Z" fill="#232323"/>
<path opacity="0.4" d="M160.307 129.738L156.183 127.381C155.847 127.213 155.931 126.877 156.268 126.624L160.307 124.268C160.728 124.015 161.232 124.015 161.569 124.184L165.692 126.54C166.029 126.708 165.945 127.045 165.608 127.297L161.569 129.653C161.232 129.906 160.643 129.99 160.307 129.738Z" fill="#232323"/>
<path opacity="0.4" d="M186.141 144.628L182.018 142.272C181.681 142.104 181.765 141.767 182.102 141.515L186.141 139.158C186.562 138.906 187.067 138.906 187.403 139.074L191.527 141.431C191.863 141.599 191.779 141.935 191.443 142.188L187.403 144.544C187.067 144.797 186.478 144.881 186.141 144.628Z" fill="#232323"/>
<path opacity="0.4" d="M192.452 148.331L188.329 145.975C187.992 145.807 188.077 145.47 188.413 145.218L192.452 142.862C192.873 142.609 193.378 142.609 193.715 142.777L197.838 145.134C198.175 145.302 198.09 145.639 197.754 145.891L193.715 148.247C193.378 148.5 192.789 148.5 192.452 148.331Z" fill="#232323"/>
<path opacity="0.4" d="M198.848 151.951L194.724 149.594C194.388 149.426 194.472 149.089 194.809 148.837L198.848 146.481C199.269 146.228 199.773 146.228 200.11 146.397L204.233 148.753C204.57 148.921 204.486 149.258 204.149 149.51L200.11 151.866C199.689 152.119 199.184 152.203 198.848 151.951Z" fill="#232323"/>
<path opacity="0.4" d="M205.159 155.654L201.036 153.297C200.699 153.129 200.783 152.793 201.12 152.54L205.159 150.184C205.58 149.931 206.085 149.931 206.421 150.1L210.545 152.456C210.881 152.624 210.797 152.961 210.461 153.213L206.421 155.57C206.085 155.822 205.496 155.822 205.159 155.654Z" fill="#232323"/>
<path opacity="0.4" d="M211.47 159.271L207.347 156.915C207.01 156.746 207.095 156.41 207.431 156.157L211.47 153.801C211.891 153.549 212.396 153.549 212.733 153.717L216.856 156.073C217.193 156.241 217.109 156.578 216.772 156.83L212.733 159.187C212.396 159.439 211.807 159.523 211.47 159.271Z" fill="#232323"/>
<path opacity="0.4" d="M217.866 162.976L213.742 160.62C213.406 160.451 213.49 160.115 213.827 159.862L217.866 157.506C218.287 157.254 218.792 157.254 219.128 157.422L223.251 159.778C223.588 159.947 223.504 160.283 223.167 160.536L219.128 162.892C218.707 163.144 218.118 163.144 217.866 162.976Z" fill="#232323"/>
<path opacity="0.4" d="M224.177 166.593L220.054 164.237C219.717 164.069 219.801 163.732 220.138 163.48L224.177 161.123C224.598 160.871 225.103 160.871 225.439 161.039L229.563 163.395C229.899 163.564 229.815 163.9 229.479 164.153L225.439 166.509C225.103 166.761 224.514 166.846 224.177 166.593Z" fill="#232323"/>
<path opacity="0.4" d="M230.489 170.296L226.365 167.94C226.029 167.772 226.113 167.435 226.449 167.183L230.489 164.826C230.909 164.574 231.414 164.574 231.751 164.742L235.874 167.098C236.211 167.267 236.127 167.603 235.79 167.856L231.751 170.212C231.414 170.465 230.825 170.465 230.489 170.296Z" fill="#232323"/>
<path opacity="0.4" d="M236.8 173.913L232.676 171.557C232.34 171.389 232.424 171.052 232.76 170.8L236.8 168.444C237.22 168.191 237.725 168.191 238.062 168.359L242.185 170.716C242.522 170.884 242.438 171.221 242.101 171.473L238.062 173.829C237.725 174.082 237.136 174.082 236.8 173.913Z" fill="#232323"/>
<path opacity="0.4" d="M176.464 131.923L172.34 129.567C172.004 129.399 172.088 129.062 172.425 128.81L176.464 126.453C176.885 126.201 177.39 126.201 177.726 126.369L181.849 128.725C182.186 128.894 182.102 129.23 181.765 129.483L177.726 131.839C177.39 132.091 176.8 132.176 176.464 131.923Z" fill="#232323"/>
<path opacity="0.4" d="M170.152 128.306L166.029 125.95C165.692 125.781 165.777 125.445 166.113 125.192L170.152 122.836C170.573 122.584 171.078 122.584 171.415 122.752L175.538 125.108C175.875 125.277 175.791 125.613 175.454 125.866L171.415 128.222C171.078 128.474 170.489 128.474 170.152 128.306Z" fill="#232323"/>
<path opacity="0.4" d="M163.841 124.687L159.718 122.331C159.381 122.162 159.465 121.826 159.802 121.573L163.841 119.217C164.262 118.965 164.767 118.965 165.104 119.133L169.227 121.489C169.564 121.657 169.479 121.994 169.143 122.246L165.104 124.603C164.767 124.855 164.178 124.855 163.841 124.687Z" fill="#232323"/>
<path opacity="0.4" d="M157.53 121.066L153.407 118.71C153.07 118.541 153.154 118.205 153.491 117.952L157.53 115.596C157.951 115.344 158.456 115.344 158.792 115.512L162.916 117.868C163.252 118.036 163.168 118.373 162.831 118.625L158.876 120.982C158.456 121.234 157.867 121.234 157.53 121.066Z" fill="#232323"/>
<path opacity="0.4" d="M164.01 117.281L159.886 114.925C159.55 114.757 159.634 114.42 159.97 114.168L161.317 113.41C161.737 113.158 162.242 113.158 162.579 113.326L166.702 115.682C167.039 115.851 166.955 116.187 166.618 116.44L165.272 117.197C164.935 117.45 164.346 117.45 164.01 117.281Z" fill="#232323"/>
<path opacity="0.4" d="M172.256 122.078L168.133 119.722C167.796 119.554 167.881 119.217 168.217 118.965L169.564 118.207C169.984 117.955 170.489 117.955 170.826 118.123L174.949 120.479C175.286 120.648 175.202 120.984 174.865 121.237L173.519 121.994C173.182 122.247 172.593 122.247 172.256 122.078Z" fill="#232323"/>
<path opacity="0.4" d="M178.568 125.697L174.444 123.341C174.108 123.173 174.192 122.836 174.528 122.584L175.875 121.826C176.296 121.574 176.8 121.574 177.137 121.742L181.26 124.099C181.597 124.267 181.513 124.603 181.176 124.856L179.83 125.613C179.409 125.866 178.904 125.866 178.568 125.697Z" fill="#232323"/>
<path opacity="0.4" d="M184.795 129.317L180.671 126.96C180.335 126.792 180.419 126.455 180.756 126.203L182.102 125.446C182.523 125.193 183.028 125.193 183.364 125.361L187.488 127.718C187.824 127.886 187.74 128.223 187.403 128.475L186.057 129.232C185.72 129.485 185.131 129.485 184.795 129.317Z" fill="#232323"/>
<path opacity="0.4" d="M191.106 132.932L186.983 130.576C186.646 130.407 186.73 130.071 187.067 129.818L188.413 129.061C188.834 128.808 189.339 128.808 189.675 128.977L193.799 131.333C194.135 131.501 194.051 131.838 193.715 132.09L192.368 132.848C192.032 133.1 191.443 133.1 191.106 132.932Z" fill="#232323"/>
<path opacity="0.4" d="M226.197 153.131L222.073 150.775C221.737 150.606 221.821 150.27 222.158 150.017L223.504 149.26C223.925 149.008 224.43 149.008 224.766 149.176L228.89 151.532C229.226 151.7 229.142 152.037 228.805 152.289L227.459 153.047C227.038 153.299 226.449 153.383 226.197 153.131Z" fill="#232323"/>
<path opacity="0.4" d="M232.424 156.748L228.301 154.392C227.964 154.224 228.048 153.887 228.385 153.635L229.731 152.877C230.152 152.625 230.657 152.625 230.993 152.793L235.117 155.149C235.453 155.318 235.369 155.654 235.033 155.907L233.686 156.664C233.35 156.916 232.761 157.001 232.424 156.748Z" fill="#232323"/>
<path opacity="0.4" d="M238.735 160.449L234.612 158.009C234.275 157.841 234.359 157.504 234.696 157.252L236.042 156.494C236.463 156.242 236.968 156.242 237.305 156.41L241.428 158.766C241.765 158.935 241.681 159.271 241.344 159.524L239.997 160.281C239.577 160.534 239.072 160.618 238.735 160.449Z" fill="#232323"/>
<path opacity="0.4" d="M244.962 164.068L240.839 161.712C240.502 161.544 240.586 161.207 240.923 160.955L242.269 160.198C242.69 159.945 243.195 159.945 243.532 160.113L247.655 162.47C247.992 162.638 247.907 162.975 247.571 163.227L246.224 163.984C245.888 164.237 245.299 164.237 244.962 164.068Z" fill="#232323"/>
<path opacity="0.4" d="M182.775 135.628L178.652 133.272C178.315 133.104 178.399 132.767 178.736 132.515L182.775 130.158C183.196 129.906 183.701 129.906 184.037 130.074L188.161 132.431C188.497 132.599 188.413 132.935 188.077 133.188L184.037 135.544C183.701 135.797 183.112 135.797 182.775 135.628Z" fill="#232323"/>
<path opacity="0.4" d="M189.171 139.245L185.047 136.889C184.711 136.721 184.795 136.384 185.131 136.132L189.171 133.776C189.591 133.523 190.096 133.523 190.433 133.692L194.556 136.048C194.893 136.216 194.809 136.553 194.472 136.805L190.433 139.161C190.012 139.414 189.507 139.498 189.171 139.245Z" fill="#232323"/>
<path opacity="0.4" d="M195.482 142.945L191.358 140.588C191.022 140.42 191.106 140.084 191.443 139.831L195.482 137.475C195.903 137.222 196.407 137.222 196.744 137.391L200.867 139.747C201.204 139.915 201.12 140.252 200.783 140.504L196.744 142.861C196.407 143.113 195.818 143.113 195.482 142.945Z" fill="#232323"/>
<path opacity="0.4" d="M201.793 146.566L197.67 144.21C197.333 144.041 197.417 143.705 197.754 143.452L201.793 141.096C202.214 140.844 202.719 140.844 203.055 141.012L207.179 143.368C207.515 143.536 207.431 143.873 207.095 144.125L203.055 146.482C202.719 146.734 202.13 146.818 201.793 146.566Z" fill="#232323"/>
<path opacity="0.4" d="M208.188 150.269L204.065 147.913C203.729 147.744 203.813 147.408 204.149 147.155L208.188 144.799C208.609 144.547 209.114 144.547 209.451 144.715L213.574 147.071C213.911 147.239 213.827 147.576 213.49 147.829L209.451 150.185C209.03 150.437 208.441 150.437 208.188 150.269Z" fill="#232323"/>
<path opacity="0.4" d="M214.5 153.886L210.376 151.53C210.04 151.362 210.124 151.025 210.461 150.772L214.5 148.416C214.921 148.164 215.425 148.164 215.762 148.332L219.885 150.688C220.222 150.857 220.138 151.193 219.801 151.446L215.762 153.802C215.425 154.054 214.836 154.139 214.5 153.886Z" fill="#232323"/>
<path opacity="0.4" d="M220.811 157.589L216.688 155.233C216.351 155.065 216.435 154.728 216.772 154.476L220.811 152.119C221.232 151.867 221.737 151.867 222.073 152.035L226.197 154.391C226.533 154.56 226.449 154.896 226.112 155.149L222.073 157.505C221.737 157.757 221.148 157.758 220.811 157.589Z" fill="#232323"/>
<path opacity="0.4" d="M227.122 161.208L222.999 158.852C222.662 158.684 222.746 158.347 223.083 158.095L227.122 155.739C227.543 155.486 228.048 155.486 228.385 155.654L232.508 158.011C232.845 158.179 232.76 158.516 232.424 158.768L228.385 161.124C228.048 161.377 227.459 161.377 227.122 161.208Z" fill="#232323"/>
<path opacity="0.4" d="M233.518 164.91L229.394 162.553C229.058 162.385 229.142 162.048 229.479 161.796L233.518 159.44C233.939 159.187 234.444 159.187 234.78 159.356L238.903 161.712C239.24 161.88 239.156 162.217 238.819 162.469L234.78 164.825C234.444 165.078 233.854 165.078 233.518 164.91Z" fill="#232323"/>
<path opacity="0.4" d="M146.59 136.048L134.473 129.063C134.136 128.895 134.22 128.558 134.557 128.306L138.596 125.949C139.017 125.697 139.522 125.697 139.858 125.865L151.976 132.85C152.313 133.018 152.228 133.355 151.892 133.607L147.853 135.963C147.516 136.216 146.927 136.3 146.59 136.048Z" fill="#232323"/>
<path opacity="0.4" d="M224.429 180.983L212.312 173.999C211.975 173.83 212.059 173.494 212.396 173.241L216.435 170.885C216.856 170.633 217.361 170.633 217.697 170.801L229.815 177.785C230.152 177.954 230.068 178.29 229.731 178.543L225.692 180.899C225.355 181.151 224.766 181.236 224.429 180.983Z" fill="#232323"/>
<path opacity="0.4" d="M199.1 174.504L194.977 172.148C194.64 171.98 194.724 171.643 195.061 171.391L199.942 168.614C200.362 168.361 200.867 168.361 201.204 168.529L205.327 170.886C205.664 171.054 205.58 171.391 205.243 171.643L200.362 174.42C200.026 174.672 199.437 174.672 199.1 174.504Z" fill="#232323"/>
<path opacity="0.4" d="M153.07 147.913L146.506 144.126C146.17 143.958 146.254 143.621 146.59 143.369L151.471 140.592C151.892 140.34 152.397 140.34 152.733 140.508L159.297 144.295C159.634 144.463 159.55 144.8 159.213 145.052L154.332 147.829C153.996 148.081 153.407 148.081 153.07 147.913Z" fill="#232323"/>
<path opacity="0.4" d="M192.957 170.97L186.393 167.183C186.057 167.015 186.141 166.678 186.478 166.426L191.358 163.649C191.779 163.396 192.284 163.396 192.621 163.565L199.184 167.351C199.521 167.52 199.437 167.856 199.1 168.109L194.219 170.886C193.883 171.138 193.294 171.138 192.957 170.97Z" fill="#232323"/>
<path opacity="0.4" d="M162.242 153.214L155.679 149.427C155.342 149.259 155.426 148.922 155.763 148.67L160.644 145.893C161.064 145.64 161.569 145.64 161.906 145.809L168.47 149.595C168.806 149.764 168.722 150.1 168.385 150.353L163.505 153.13C163.084 153.382 162.579 153.382 162.242 153.214Z" fill="#232323"/>
<path opacity="0.4" d="M161.906 145.811L190.433 162.304C190.769 162.472 190.769 162.809 190.433 163.061L185.468 165.923C185.131 166.091 184.542 166.091 184.206 165.923L155.679 149.429L161.906 145.811Z" fill="#232323"/>
<path opacity="0.4" d="M216.772 181.067L221.316 183.676C221.568 183.844 221.568 184.096 221.232 184.265L219.212 185.443C218.876 185.611 218.455 185.611 218.118 185.527L213.574 182.918C213.322 182.75 213.322 182.498 213.658 182.329L215.678 181.151C216.014 180.983 216.519 180.983 216.772 181.067Z" fill="#232323"/>
<path opacity="0.4" d="M210.376 177.449L214.92 180.058C215.173 180.226 215.173 180.479 214.836 180.647L212.817 181.825C212.48 181.993 212.059 181.993 211.723 181.909L207.179 179.301C206.926 179.132 206.926 178.88 207.263 178.712L209.282 177.533C209.703 177.281 210.124 177.281 210.376 177.449Z" fill="#232323"/>
<path opacity="0.4" d="M204.065 173.748L208.609 176.357C208.862 176.525 208.862 176.778 208.525 176.946L206.506 178.124C206.169 178.292 205.748 178.292 205.412 178.208L200.867 175.599C200.615 175.431 200.615 175.179 200.952 175.01L202.971 173.832C203.308 173.58 203.813 173.58 204.065 173.748Z" fill="#232323"/>
<path opacity="0.4" d="M213.911 175.43L218.455 178.038C218.707 178.207 218.707 178.459 218.371 178.628L216.351 179.806C216.014 179.974 215.594 179.974 215.257 179.89L210.713 177.281C210.461 177.113 210.461 176.86 210.797 176.692L212.817 175.514C213.153 175.261 213.658 175.262 213.911 175.43Z" fill="#232323"/>
</g>
<path d="M280.979 168.026L159.886 98.0973C157.951 97.0033 157.025 94.3105 157.698 92.1226L185.047 3.25965C185.72 1.07174 187.824 0.146084 189.759 1.24004L310.852 71.1691C312.787 72.2631 313.713 74.9559 313.04 77.1438L285.691 166.007C284.934 168.195 282.83 169.12 280.979 168.026Z" fill="url(#paint7_radial_593_25838)"/>
<path d="M279.8 164.911L162.41 97.0854C160.559 96.0756 159.633 93.4669 160.307 91.3631L186.477 6.37113C187.151 4.26737 189.17 3.42586 190.937 4.43567L308.327 72.261C310.179 73.2708 311.104 75.8794 310.431 77.9832L284.26 162.975C283.671 165.079 281.652 165.92 279.8 164.911Z" fill="url(#paint8_linear_593_25838)"/>
<path opacity="0.4" d="M279.8 164.911L162.41 97.0854C160.559 96.0756 159.633 93.4669 160.307 91.3631L186.477 6.37113C187.151 4.26737 189.17 3.42586 190.937 4.43567L308.327 72.261C310.179 73.2708 311.104 75.8794 310.431 77.9832L284.26 162.975C283.671 165.079 281.652 165.921 279.8 164.911Z" fill="#06033E"/>
<path opacity="0.4" d="M279.8 164.911L162.41 97.0854C160.559 96.0756 159.633 93.4669 160.307 91.3631L186.477 6.37113C187.151 4.26737 189.17 3.42586 190.937 4.43567L308.327 72.261C310.179 73.2708 311.104 75.8794 310.431 77.9832L284.26 162.975C283.671 165.079 281.652 165.921 279.8 164.911Z" fill="#7F7B5A"/>
<g filter="url(#filter0_b_593_25838)">
<path d="M278.1 163.586L162.795 96.9659C160.965 95.8677 159.989 93.4274 160.721 91.2311L186.832 6.55239C187.442 4.47812 189.516 3.62401 191.225 4.60013L306.529 71.0986C308.359 72.1967 309.336 74.637 308.603 76.8333L282.492 161.512C281.882 163.708 279.93 164.562 278.1 163.586Z" fill="#7F7B5A"/>
</g>
<g opacity="0.5">
<g filter="url(#filter1_b_593_25838)">
<path d="M279.887 163.702L164.582 97.0811C162.752 95.9829 161.776 93.5426 162.508 91.3464L188.619 6.66762C189.229 4.59336 191.303 3.73924 193.012 4.71536L308.316 71.2138C310.147 72.3119 311.123 74.7523 310.391 76.9485L284.279 161.627C283.669 163.824 281.717 164.678 279.887 163.702Z" fill="#7F7B5A"/>
</g>
</g>
<path d="M306.32 71.6423L191.127 5.33853C190.03 4.73024 188.811 4.73024 187.835 5.46019C188.323 5.46019 188.932 5.58185 189.542 5.82517L304.735 72.129C306.564 73.2239 307.539 75.657 306.808 77.8469L280.721 162.278C280.478 163.008 280.112 163.616 279.502 164.103C280.721 164.103 281.819 163.251 282.306 161.791L308.392 77.3603C309.124 75.1704 308.148 72.6156 306.32 71.6423Z" fill="white"/>
<path opacity="0.4" d="M162.495 187.968C161.401 187.968 160.391 187.715 159.549 187.294L127.74 168.866C126.899 168.361 126.394 167.687 126.394 166.93C126.394 166.004 127.067 165.163 128.161 164.49L144.571 155.065C146.59 153.887 149.535 153.803 151.303 154.812L183.111 173.157C183.953 173.662 184.458 174.335 184.458 175.093C184.458 176.018 183.785 176.86 182.691 177.533L166.281 186.958C165.187 187.631 163.841 187.968 162.495 187.968ZM148.357 154.981C147.179 154.981 146.001 155.233 145.075 155.822L128.666 165.247C127.825 165.752 127.404 166.341 127.404 166.846C127.404 167.435 127.825 167.772 128.245 168.024L160.054 186.453C161.485 187.294 164.178 187.21 165.861 186.201L182.27 176.776C183.111 176.271 183.532 175.682 183.532 175.177C183.532 174.588 183.111 174.251 182.691 173.999L150.882 155.654C150.124 155.233 149.283 154.981 148.357 154.981Z" fill="#06033E"/>
<path d="M89.7043 123.765C87.4322 123.765 85.1602 123.175 83.1406 121.997L59.0735 108.113C58.0637 107.523 57.3905 106.43 57.3905 105.251C57.3905 104.073 57.9796 102.979 59.0735 102.39L83.1406 88.5054C87.1798 86.1492 92.2288 86.1492 96.268 88.5054L120.335 102.39C121.345 102.979 122.018 104.073 122.018 105.251C122.018 106.43 121.429 107.523 120.335 108.113L96.268 121.997C94.2484 123.175 91.9764 123.765 89.7043 123.765ZM83.8979 120.651C87.4322 122.755 91.8922 122.755 95.5107 120.651L119.578 106.766C120.167 106.43 120.419 105.84 120.419 105.251C120.419 104.662 120.083 104.073 119.578 103.737L95.5107 89.8519C91.9764 87.7481 87.5164 87.7481 83.8979 89.8519L59.8309 103.737C59.2418 104.073 58.9894 104.662 58.9894 105.251C58.9894 105.925 59.326 106.43 59.8309 106.766L83.8979 120.651Z" fill="url(#paint9_linear_593_25838)"/>
<defs>
<filter id="filter0_b_593_25838" x="156.476" y="0.197266" width="156.372" height="167.789" filterUnits="userSpaceOnUse" color-interpolation-filters="sRGB">
<feFlood flood-opacity="0" result="BackgroundImageFix"/>
<feGaussianBlur in="BackgroundImage" stdDeviation="2"/>
<feComposite in2="SourceAlpha" operator="in" result="effect1_backgroundBlur_593_25838"/>
<feBlend mode="normal" in="SourceGraphic" in2="effect1_backgroundBlur_593_25838" result="shape"/>
</filter>
<filter id="filter1_b_593_25838" x="158.263" y="0.3125" width="156.372" height="167.789" filterUnits="userSpaceOnUse" color-interpolation-filters="sRGB">
<feFlood flood-opacity="0" result="BackgroundImageFix"/>
<feGaussianBlur in="BackgroundImage" stdDeviation="2"/>
<feComposite in2="SourceAlpha" operator="in" result="effect1_backgroundBlur_593_25838"/>
<feBlend mode="normal" in="SourceGraphic" in2="effect1_backgroundBlur_593_25838" result="shape"/>
</filter>
<linearGradient id="paint0_linear_593_25838" x1="341.571" y1="203.381" x2="369.043" y2="203.381" gradientUnits="userSpaceOnUse">
<stop stop-color="#F27B50"/>
<stop offset="1" stop-color="#BA54EC"/>
</linearGradient>
<linearGradient id="paint1_linear_593_25838" x1="303.958" y1="165.772" x2="350.054" y2="165.772" gradientUnits="userSpaceOnUse">
<stop stop-color="#F27B50"/>
<stop offset="1" stop-color="#BA54EC"/>
</linearGradient>
<linearGradient id="paint2_linear_593_25838" x1="0.00639544" y1="181.171" x2="46.1027" y2="181.171" gradientUnits="userSpaceOnUse">
<stop stop-color="#F27B50"/>
<stop offset="1" stop-color="#BA54EC"/>
</linearGradient>
<linearGradient id="paint3_linear_593_25838" x1="53.6382" y1="178.319" x2="300.047" y2="178.319" gradientUnits="userSpaceOnUse">
<stop stop-color="#F27B50"/>
<stop offset="1" stop-color="#BA54EC"/>
</linearGradient>
<radialGradient id="paint4_radial_593_25838" cx="0" cy="0" r="1" gradientUnits="userSpaceOnUse" gradientTransform="translate(189.546 -3.8875) scale(187.905)">
<stop stop-color="#7E6538"/>
<stop offset="0.4742" stop-color="#76744F"/>
<stop offset="0.5947" stop-color="#303F34"/>
<stop offset="0.7421" stop-color="#4B757A"/>
<stop offset="0.8016" stop-color="#1B2631"/>
</radialGradient>
<radialGradient id="paint5_radial_593_25838" cx="0" cy="0" r="1" gradientUnits="userSpaceOnUse" gradientTransform="translate(74.6189 147.015) scale(205.472)">
<stop stop-color="#856C3C"/>
<stop offset="0.4742" stop-color="#605D3C"/>
<stop offset="0.5679" stop-color="#667257"/>
<stop offset="0.6825" stop-color="#426C7A"/>
<stop offset="0.7381" stop-color="#1C2833"/>
</radialGradient>
<radialGradient id="paint6_radial_593_25838" cx="0" cy="0" r="1" gradientUnits="userSpaceOnUse" gradientTransform="translate(93.5169 105.772) scale(184.256)">
<stop stop-color="#8B7F5A"/>
<stop offset="0.505208" stop-color="#6B5935"/>
<stop offset="0.661458" stop-color="#656E50"/>
<stop offset="0.796875" stop-color="#426C7B"/>
<stop offset="1" stop-color="#1F2A35"/>
</radialGradient>
<radialGradient id="paint7_radial_593_25838" cx="0" cy="0" r="1" gradientUnits="userSpaceOnUse" gradientTransform="translate(139.419 35.3081) scale(187.942)">
<stop stop-color="#7E663A"/>
<stop offset="0.4742" stop-color="#796F45"/>
<stop offset="0.5875" stop-color="#4C5C43"/>
<stop offset="0.7262" stop-color="#4A7073"/>
<stop offset="1" stop-color="#1F2A37"/>
</radialGradient>
<linearGradient id="paint8_linear_593_25838" x1="160.076" y1="84.6413" x2="310.677" y2="84.6413" gradientUnits="userSpaceOnUse">
<stop stop-color="#715C35"/>
<stop offset="1" stop-color="#42686B"/>
</linearGradient>
<linearGradient id="paint9_linear_593_25838" x1="57.3995" y1="105.278" x2="122.12" y2="105.278" gradientUnits="userSpaceOnUse">
<stop stop-color="#F27B50"/>
<stop offset="1" stop-color="#BA54EC"/>
</linearGradient>
</defs>
<path fill-rule="evenodd" clip-rule="evenodd" d="M51.55 6.16811C60.8461 11.4874 67.8013 19.9796 72.5026 29.5891L60.6958 31.5577C57.6878 26.2262 53.2032 21.2536 47.8579 18.1949C29.4978 7.68914 10.9741 20.8564 11.8247 43.0036L0.204526 36.3544C1.93998 7.56451 27.1481 -7.79416 51.5504 6.169L51.55 6.16811ZM45.4015 52.8903C44.6978 54.2928 43.5291 55.4292 41.9741 56.0434C37.9314 57.6411 33.2834 54.9815 31.2833 49.926C29.2834 44.8707 30.8547 39.753 34.8974 38.155C36.452 37.5406 38.0822 37.5709 39.5554 38.1126L76.4527 31.8486L45.4011 52.8893L45.4015 52.8903ZM41.8567 45.7478C42.7798 48.0811 41.9942 50.64 40.1282 51.3774C38.2623 52.1149 35.9383 50.785 35.0152 48.4517C34.0921 46.1184 34.8778 43.5595 36.7437 42.8221C38.6096 42.0846 40.9337 43.4144 41.8567 45.7478ZM39.4477 46.4752C39.14 45.6971 38.4431 45.2984 37.821 45.5443C37.1988 45.7902 36.8846 46.8136 37.1925 47.5912C37.5003 48.3692 38.1971 48.7679 38.8193 48.522C39.4414 48.2761 39.7557 47.2527 39.4477 46.4752ZM75.271 36.5884C79.4899 50.4342 78.8908 65.7355 71.5514 77.1801L59.9313 70.531C65.9346 63.437 67.4471 53.1711 65.3102 43.2237L75.2712 36.5892L75.271 36.5884Z" fill="url(#paint0_linear_593_26010)" transform="translate(190,50)" />
<defs>
<linearGradient id="paint0_linear_593_26010" x1="6.66608" y1="27.5062" x2="81.2124" y2="49.5187" gradientUnits="userSpaceOnUse">
<stop stop-color="#75F58A"/>
<stop offset="1" stop-color="#F27B51"/>
</linearGradient>
</defs>
</svg>
