<svg xmlns="http://www.w3.org/2000/svg" width="32" height="32" viewBox="0 0 32 32" fill="none">
<rect width="32" height="32" rx="5" fill="#40444E"/>
<path fill-rule="evenodd" clip-rule="evenodd" d="M16.6409 22.872C19.4694 22.872 21.8987 21.1856 22.9534 18.776H25.4389C24.2777 22.4829 20.7779 25.176 16.6409 25.176C12.5039 25.176 9.00419 22.4829 7.84301 18.776H10.3285C11.3831 21.1856 13.8125 22.872 16.6409 22.872ZM16.6409 9.304C13.8125 9.304 11.3831 10.9904 10.3285 13.4H7.84301C9.00419 9.69308 12.5039 7 16.6409 7C20.7779 7 24.2777 9.69308 25.4389 13.4H25.44C25.791 14.6021 25.8483 15.5323 25.8483 15.96C25.8483 16.642 25.791 17.1133 25.791 17.1133H4L5.81553 14.8698H15.841H20.8844H23.4046C23.4046 14.8698 23.2546 14.04 22.9537 13.4H22.9534C21.8987 10.9904 19.4694 9.304 16.6409 9.304Z" fill="white"/>
</svg>