<svg width="369" height="250" viewBox="0 0 369 250" fill="none" xmlns="http://www.w3.org/2000/svg">
<path d="M355.283 211.45C354.274 211.45 353.264 211.197 352.338 210.693L342.493 204.97C341.904 204.634 341.567 204.045 341.567 203.371C341.567 202.698 341.904 202.109 342.493 201.773L352.338 196.05C354.105 195.041 356.377 195.041 358.229 196.05L368.074 201.773C368.663 202.109 369 202.698 369 203.371C369 204.045 368.663 204.634 368.074 204.97L358.229 210.693C357.303 211.197 356.293 211.45 355.283 211.45ZM355.283 196.892C354.526 196.892 353.769 197.06 353.096 197.481L343.25 203.203C343.166 203.287 343.082 203.371 343.082 203.456C343.082 203.54 343.082 203.624 343.25 203.708L353.096 209.43C354.442 210.188 356.041 210.188 357.387 209.43L367.233 203.708C367.317 203.624 367.401 203.54 367.401 203.456C367.401 203.371 367.401 203.287 367.233 203.203L357.387 197.481C356.714 197.06 355.957 196.892 355.283 196.892Z" fill="url(#paint0_linear_619_35235)"/>
<path d="M327.009 179.135C325.326 179.135 323.727 178.714 322.212 177.873L305.214 168.027C304.372 167.522 303.952 166.765 303.952 165.755C303.952 164.829 304.457 163.988 305.214 163.483L322.212 153.637C325.158 151.954 328.776 151.954 331.721 153.637L348.72 163.483C349.561 163.988 349.982 164.745 349.982 165.755C349.982 166.681 349.477 167.522 348.72 168.027L331.721 177.873C330.291 178.63 328.692 179.135 327.009 179.135ZM323.054 176.442C325.494 177.873 328.524 177.873 331.048 176.442L348.046 166.596C348.467 166.344 348.551 165.923 348.551 165.755C348.551 165.587 348.467 165.166 348.046 164.913L331.048 155.068C328.608 153.637 325.578 153.637 323.054 155.068L306.055 164.913C305.635 165.166 305.55 165.587 305.55 165.755C305.55 165.923 305.635 166.344 306.055 166.596L323.054 176.442Z" fill="url(#paint1_linear_619_35235)"/>
<path d="M23.0572 194.529C21.3742 194.529 19.7754 194.109 18.2607 193.267L1.26226 183.422C0.420753 182.917 0 182.159 0 181.149C0 180.224 0.504903 179.382 1.26226 178.877L18.2607 169.032C21.2059 167.349 24.8244 167.349 27.7697 169.032L44.7681 178.877C45.6096 179.382 46.0303 180.14 46.0303 181.149C46.0303 182.075 45.5254 182.917 44.7681 183.422L27.7697 193.267C26.3391 194.109 24.6561 194.529 23.0572 194.529ZM23.0572 169.453C21.7108 169.453 20.2803 169.789 19.1022 170.546L2.10376 180.392C1.68301 180.645 1.59886 181.065 1.59886 181.234C1.59886 181.402 1.68301 181.823 2.10376 182.075L19.1022 191.921C21.5425 193.351 24.572 193.351 27.0965 191.921L44.0949 182.075C44.5156 181.823 44.5998 181.402 44.5998 181.234C44.5998 181.065 44.5156 180.645 44.0949 180.392L27.0965 170.546C25.7501 169.789 24.4036 169.453 23.0572 169.453Z" fill="url(#paint2_linear_619_35235)"/>
<path opacity="0.6" d="M195.145 237.365L73.6317 167.184C71.8645 166.174 72.117 164.407 74.1366 163.229L152.144 118.208C154.164 117.03 157.277 116.862 159.044 117.956L280.558 188.137C282.325 189.147 282.072 190.914 280.053 192.092L202.045 237.113C200.026 238.207 196.912 238.375 195.145 237.365Z" fill="black" fill-opacity="0.28"/>
<path d="M197.922 249.989C196.492 249.989 195.145 249.653 194.135 249.064L55.3711 169.037C54.2772 168.363 53.604 167.438 53.604 166.344C53.604 165.166 54.4455 163.904 55.9602 163.062L150.545 107.691C153.154 106.176 156.941 106.008 159.213 107.354L297.893 187.466C298.987 188.139 299.66 189.065 299.66 190.158C299.66 191.337 298.819 192.599 297.304 193.44L202.719 248.811C201.372 249.569 199.605 249.989 197.922 249.989ZM155.426 108.112C153.996 108.112 152.481 108.448 151.303 109.122L56.7176 164.493C55.7077 165.082 55.2028 165.755 55.2028 166.428C55.2028 167.017 55.7077 167.438 56.2126 167.69L194.893 247.802C196.66 248.811 199.942 248.643 201.961 247.465L296.546 192.094C297.556 191.505 298.061 190.832 298.061 190.158C298.061 189.569 297.556 189.149 297.051 188.896L158.371 108.785C157.614 108.28 156.52 108.112 155.426 108.112Z" fill="url(#paint3_linear_619_35235)"/>
<path d="M312.872 70.4113L191.779 0.482267C190.938 -0.0226356 190.096 -0.106787 189.339 0.145664L187.067 0.90302L187.824 1.07132C187.487 1.40792 187.235 1.91282 187.067 2.41773L159.718 91.3648C159.044 93.5527 160.054 96.2455 161.906 97.3395L282.998 167.269C283.251 167.437 283.587 167.521 283.924 167.605L283.587 168.278L285.691 167.521C286.533 167.184 287.29 166.427 287.626 165.249L315.06 76.386C315.733 74.1981 314.807 71.5053 312.872 70.4113Z" fill="url(#paint4_radial_619_35235)"/>
<path d="M278.706 170.55L159.213 101.547C157.446 100.537 154.416 100.621 152.312 101.799L75.0622 146.399L72.4535 145.389L73.2108 149.008C73.295 149.513 73.7158 150.102 74.389 150.438L195.061 220.199C196.828 221.209 199.857 221.125 201.961 219.947L279.38 175.263C280.305 174.674 280.894 174 281.063 173.327L281.82 169.793L278.706 170.55Z" fill="url(#paint5_radial_619_35235)"/>
<path d="M195.145 217.088L73.6317 146.906C71.8645 145.897 72.117 144.129 74.1366 142.951L152.144 97.9308C154.164 96.7527 157.277 96.5844 159.044 97.6784L280.558 167.86C282.325 168.87 282.072 170.637 280.053 171.815L202.045 216.836C200.026 217.929 196.912 218.098 195.145 217.088Z" fill="url(#paint6_radial_619_35235)"/>
<path d="M280.053 170.8L202.045 215.82C200.026 216.998 196.912 217.167 195.145 216.073L73.6317 145.891C73.0427 145.555 72.7061 145.134 72.5378 144.629C72.2853 145.47 72.6219 146.228 73.6317 146.817L195.145 216.998C196.912 218.008 200.026 217.924 202.045 216.746L280.053 171.725C281.399 170.968 281.904 169.874 281.652 169.033C281.483 169.622 280.979 170.295 280.053 170.8Z" fill="#6B5C38"/>
<g opacity="0.4">
<path opacity="0.4" d="M131.612 135.545L127.488 133.189C127.152 133.021 127.236 132.684 127.572 132.432L132.453 129.655C132.874 129.402 133.379 129.402 133.715 129.57L137.839 131.927C138.175 132.095 138.091 132.432 137.755 132.684L132.874 135.461C132.537 135.629 131.948 135.713 131.612 135.545Z" fill="#06033E"/>
<path opacity="0.4" d="M137.923 139.158L133.799 136.802C133.463 136.634 133.547 136.297 133.884 136.045L138.764 133.268C139.185 133.015 139.69 133.015 140.027 133.184L144.15 135.54C144.487 135.708 144.402 136.045 144.066 136.297L139.185 139.074C138.848 139.327 138.259 139.327 137.923 139.158Z" fill="#06033E"/>
<path opacity="0.4" d="M144.234 142.783L140.111 140.427C139.774 140.259 139.858 139.922 140.195 139.67L145.076 136.893C145.496 136.64 146.001 136.64 146.338 136.809L150.461 139.165C150.798 139.333 150.714 139.67 150.377 139.922L145.496 142.699C145.16 142.952 144.571 143.036 144.234 142.783Z" fill="#06033E"/>
<path opacity="0.4" d="M153.07 139.835L148.947 137.479C148.61 137.311 148.694 136.974 149.031 136.722L153.07 134.366C153.491 134.113 153.996 134.113 154.332 134.281L158.456 136.638C158.792 136.806 158.708 137.142 158.371 137.395L154.332 139.751C153.911 140.004 153.322 140.004 153.07 139.835Z" fill="#06033E"/>
<path opacity="0.4" d="M159.381 143.456L155.258 141.1C154.921 140.932 155.005 140.595 155.342 140.343L159.381 137.987C159.802 137.734 160.307 137.734 160.643 137.902L164.767 140.259C165.103 140.427 165.019 140.764 164.683 141.016L160.643 143.372C160.307 143.625 159.718 143.625 159.381 143.456Z" fill="#06033E"/>
<path opacity="0.4" d="M165.692 147.156L161.569 144.799C161.232 144.631 161.317 144.294 161.653 144.042L165.692 141.686C166.113 141.433 166.618 141.433 166.955 141.602L171.078 143.958C171.415 144.126 171.331 144.463 170.994 144.715L166.955 147.071C166.618 147.24 166.029 147.324 165.692 147.156Z" fill="#06033E"/>
<path opacity="0.4" d="M172.004 150.777L167.88 148.42C167.544 148.252 167.628 147.916 167.965 147.663L172.004 145.307C172.425 145.054 172.929 145.054 173.266 145.223L177.389 147.579C177.726 147.747 177.642 148.084 177.305 148.336L173.266 150.693C172.929 150.945 172.34 150.945 172.004 150.777Z" fill="#06033E"/>
<path opacity="0.4" d="M178.399 154.394L174.276 152.038C173.939 151.869 174.023 151.533 174.36 151.28L178.399 148.924C178.82 148.672 179.325 148.672 179.661 148.84L183.785 151.196C184.121 151.364 184.037 151.701 183.701 151.954L179.661 154.31C179.325 154.562 178.736 154.646 178.399 154.394Z" fill="#06033E"/>
<path opacity="0.4" d="M184.711 158.097L180.587 155.741C180.251 155.572 180.335 155.236 180.671 154.983L184.711 152.627C185.131 152.375 185.636 152.375 185.973 152.543L190.096 154.899C190.433 155.068 190.349 155.404 190.012 155.657L185.973 158.013C185.636 158.265 185.047 158.265 184.711 158.097Z" fill="#06033E"/>
<path opacity="0.4" d="M191.022 161.714L186.898 159.358C186.562 159.19 186.646 158.853 186.983 158.601L191.022 156.244C191.443 155.992 191.947 155.992 192.284 156.16L196.407 158.516C196.744 158.685 196.66 159.021 196.323 159.274L192.284 161.63C191.947 161.882 191.358 161.967 191.022 161.714Z" fill="#06033E"/>
<path opacity="0.4" d="M197.417 165.417L193.294 163.061C192.957 162.893 193.041 162.556 193.378 162.304L197.417 159.948C197.838 159.695 198.343 159.695 198.68 159.863L202.803 162.22C203.14 162.388 203.055 162.725 202.719 162.977L198.68 165.333C198.259 165.586 197.754 165.586 197.417 165.417Z" fill="#06033E"/>
<path opacity="0.4" d="M203.728 169.035L199.605 166.678C199.268 166.51 199.353 166.173 199.689 165.921L203.728 163.565C204.149 163.312 204.654 163.312 204.991 163.481L209.114 165.837C209.451 166.005 209.366 166.342 209.03 166.594L204.991 168.95C204.654 169.203 204.065 169.287 203.728 169.035Z" fill="#06033E"/>
<path opacity="0.4" d="M210.04 172.738L205.916 170.381C205.58 170.213 205.664 169.877 206 169.624L210.04 167.268C210.46 167.015 210.965 167.015 211.302 167.184L215.425 169.54C215.762 169.708 215.678 170.045 215.341 170.297L211.302 172.653C210.965 172.906 210.376 172.906 210.04 172.738Z" fill="#06033E"/>
<path opacity="0.4" d="M162.41 138.07L158.287 135.713C157.95 135.545 158.035 135.209 158.371 134.956L162.41 132.6C162.831 132.347 163.336 132.347 163.673 132.516L167.796 134.872C168.133 135.04 168.049 135.377 167.712 135.629L163.673 137.986C163.252 138.238 162.663 138.238 162.41 138.07Z" fill="#06033E"/>
<path opacity="0.4" d="M155.931 134.367L151.808 132.01C151.471 131.842 151.555 131.505 151.892 131.253L155.931 128.897C156.352 128.644 156.857 128.644 157.193 128.813L161.317 131.169C161.653 131.337 161.569 131.674 161.233 131.926L157.193 134.282C156.857 134.535 156.268 134.535 155.931 134.367Z" fill="#06033E"/>
<path opacity="0.4" d="M149.535 130.663L140.7 125.53C140.363 125.362 140.447 125.025 140.784 124.773L144.823 122.416C145.244 122.164 145.749 122.164 146.085 122.332L154.921 127.465C155.258 127.634 155.174 127.97 154.837 128.223L150.798 130.579C150.377 130.831 149.788 130.831 149.535 130.663Z" fill="#06033E"/>
<path opacity="0.4" d="M153.996 126.118L146.843 121.995C146.506 121.826 146.59 121.49 146.927 121.237L150.966 118.881C151.387 118.629 151.892 118.629 152.228 118.797L159.381 122.92C159.718 123.089 159.634 123.425 159.297 123.678L155.258 126.034C154.921 126.286 154.332 126.286 153.996 126.118Z" fill="#06033E"/>
<path opacity="0.4" d="M168.722 141.687L164.598 139.331C164.262 139.162 164.346 138.826 164.683 138.573L168.722 136.217C169.143 135.965 169.647 135.965 169.984 136.133L174.107 138.489C174.444 138.657 174.36 138.994 174.023 139.246L169.984 141.603C169.647 141.855 169.058 141.939 168.722 141.687Z" fill="#06033E"/>
<path opacity="0.4" d="M175.033 145.386L170.91 143.03C170.573 142.862 170.657 142.525 170.994 142.273L175.033 139.916C175.454 139.664 175.959 139.664 176.295 139.832L180.419 142.188C180.755 142.357 180.671 142.693 180.335 142.946L176.295 145.302C175.959 145.554 175.37 145.554 175.033 145.386Z" fill="#06033E"/>
<path opacity="0.4" d="M181.344 149.007L177.221 146.651C176.884 146.483 176.969 146.146 177.305 145.894L181.344 143.537C181.765 143.285 182.27 143.285 182.607 143.453L186.73 145.809C187.067 145.978 186.982 146.314 186.646 146.567L182.607 148.923C182.27 149.175 181.681 149.26 181.344 149.007Z" fill="#06033E"/>
<path opacity="0.4" d="M187.74 152.71L183.616 150.354C183.28 150.186 183.364 149.849 183.701 149.597L187.74 147.241C188.161 146.988 188.666 146.988 189.002 147.156L193.126 149.513C193.462 149.681 193.378 150.017 193.041 150.27L189.002 152.626C188.581 152.879 188.076 152.879 187.74 152.71Z" fill="#06033E"/>
<path opacity="0.4" d="M194.051 156.327L189.928 153.971C189.591 153.803 189.675 153.466 190.012 153.214L194.051 150.858C194.472 150.605 194.977 150.605 195.313 150.774L199.437 153.13C199.773 153.298 199.689 153.635 199.353 153.887L195.313 156.243C194.977 156.496 194.388 156.58 194.051 156.327Z" fill="#06033E"/>
<path opacity="0.4" d="M200.362 160.031L196.239 157.674C195.902 157.506 195.987 157.169 196.323 156.917L200.362 154.561C200.783 154.308 201.288 154.308 201.625 154.477L205.748 156.833C206.085 157.001 206 157.338 205.664 157.59L201.625 159.946C201.288 160.199 200.699 160.199 200.362 160.031Z" fill="#06033E"/>
<path opacity="0.4" d="M206.758 163.652L202.635 161.295C202.298 161.127 202.382 160.791 202.719 160.538L206.758 158.182C207.179 157.929 207.684 157.929 208.02 158.098L212.144 160.454C212.48 160.622 212.396 160.959 212.059 161.211L208.02 163.568C207.599 163.82 207.094 163.904 206.758 163.652Z" fill="#06033E"/>
<path opacity="0.4" d="M213.069 167.351L208.946 164.995C208.609 164.826 208.693 164.49 209.03 164.237L213.069 161.881C213.49 161.629 213.995 161.629 214.332 161.797L218.455 164.153C218.792 164.321 218.707 164.658 218.371 164.911L214.332 167.267C213.995 167.519 213.406 167.519 213.069 167.351Z" fill="#06033E"/>
<path opacity="0.4" d="M219.381 170.972L215.257 168.616C214.921 168.448 215.005 168.111 215.341 167.858L219.381 165.502C219.801 165.25 220.306 165.25 220.643 165.418L224.766 167.774C225.103 167.943 225.019 168.279 224.682 168.532L220.643 170.888C220.306 171.14 219.717 171.224 219.381 170.972Z" fill="#06033E"/>
<path opacity="0.4" d="M230.657 177.534L221.737 172.401C221.4 172.233 221.484 171.896 221.821 171.644L225.86 169.287C226.281 169.035 226.786 169.035 227.122 169.203L236.042 174.336C236.379 174.505 236.295 174.841 235.958 175.094L231.919 177.45C231.582 177.702 230.993 177.702 230.657 177.534Z" fill="#06033E"/>
<path opacity="0.4" d="M243.027 170.382L235.453 166.006C235.117 165.838 235.201 165.502 235.537 165.249L239.577 162.893C239.997 162.64 240.502 162.64 240.839 162.809L248.412 167.185C248.749 167.353 248.665 167.689 248.328 167.942L244.289 170.298C243.868 170.551 243.363 170.551 243.027 170.382Z" fill="#06033E"/>
<path opacity="0.4" d="M179.83 141.015L175.706 138.659C175.37 138.49 175.454 138.154 175.791 137.901L179.83 135.545C180.251 135.293 180.755 135.293 181.092 135.461L185.215 137.817C185.552 137.986 185.468 138.322 185.131 138.575L181.092 140.931C180.671 141.183 180.166 141.183 179.83 141.015Z" fill="#06033E"/>
<path opacity="0.4" d="M173.35 137.23L169.227 134.874C168.89 134.705 168.974 134.369 169.311 134.116L173.35 131.76C173.771 131.508 174.276 131.508 174.612 131.676L178.736 134.032C179.072 134.2 178.988 134.537 178.652 134.789L174.612 137.146C174.192 137.398 173.603 137.482 173.35 137.23Z" fill="#06033E"/>
<path opacity="0.4" d="M166.786 133.527L162.663 131.17C162.327 131.002 162.411 130.666 162.747 130.413L166.786 128.057C167.207 127.804 167.712 127.804 168.049 127.973L172.172 130.329C172.509 130.497 172.425 130.834 172.088 131.086L168.049 133.443C167.712 133.695 167.123 133.695 166.786 133.527Z" fill="#06033E"/>
<path opacity="0.4" d="M160.307 129.738L156.183 127.381C155.847 127.213 155.931 126.877 156.268 126.624L160.307 124.268C160.728 124.015 161.232 124.015 161.569 124.184L165.692 126.54C166.029 126.708 165.945 127.045 165.608 127.297L161.569 129.653C161.232 129.906 160.643 129.99 160.307 129.738Z" fill="#06033E"/>
<path opacity="0.4" d="M186.141 144.628L182.018 142.272C181.681 142.104 181.765 141.767 182.102 141.515L186.141 139.158C186.562 138.906 187.067 138.906 187.403 139.074L191.527 141.431C191.863 141.599 191.779 141.935 191.443 142.188L187.403 144.544C187.067 144.797 186.478 144.881 186.141 144.628Z" fill="#06033E"/>
<path opacity="0.4" d="M192.452 148.335L188.329 145.979C187.992 145.811 188.077 145.474 188.413 145.222L192.452 142.866C192.873 142.613 193.378 142.613 193.715 142.781L197.838 145.138C198.175 145.306 198.09 145.642 197.754 145.895L193.715 148.251C193.378 148.504 192.789 148.504 192.452 148.335Z" fill="#06033E"/>
<path opacity="0.4" d="M198.848 151.952L194.724 149.596C194.388 149.428 194.472 149.091 194.809 148.839L198.848 146.483C199.269 146.23 199.773 146.23 200.11 146.399L204.233 148.755C204.57 148.923 204.486 149.26 204.149 149.512L200.11 151.868C199.689 152.121 199.184 152.205 198.848 151.952Z" fill="#06033E"/>
<path opacity="0.4" d="M205.159 155.656L201.036 153.299C200.699 153.131 200.783 152.794 201.12 152.542L205.159 150.186C205.58 149.933 206.085 149.933 206.421 150.102L210.545 152.458C210.881 152.626 210.797 152.963 210.461 153.215L206.421 155.571C206.085 155.824 205.496 155.824 205.159 155.656Z" fill="#06033E"/>
<path opacity="0.4" d="M211.47 159.273L207.347 156.917C207.01 156.748 207.095 156.412 207.431 156.159L211.47 153.803C211.891 153.551 212.396 153.551 212.733 153.719L216.856 156.075C217.193 156.243 217.108 156.58 216.772 156.832L212.733 159.189C212.396 159.441 211.807 159.525 211.47 159.273Z" fill="#06033E"/>
<path opacity="0.4" d="M217.866 162.976L213.742 160.62C213.406 160.451 213.49 160.115 213.827 159.862L217.866 157.506C218.287 157.254 218.791 157.254 219.128 157.422L223.251 159.778C223.588 159.947 223.504 160.283 223.167 160.536L219.128 162.892C218.707 163.144 218.118 163.144 217.866 162.976Z" fill="#06033E"/>
<path opacity="0.4" d="M224.177 166.597L220.054 164.241C219.717 164.072 219.801 163.736 220.138 163.483L224.177 161.127C224.598 160.875 225.103 160.875 225.439 161.043L229.563 163.399C229.899 163.568 229.815 163.904 229.479 164.157L225.439 166.513C225.103 166.765 224.514 166.849 224.177 166.597Z" fill="#06033E"/>
<path opacity="0.4" d="M230.488 170.296L226.365 167.94C226.028 167.772 226.113 167.435 226.449 167.183L230.488 164.826C230.909 164.574 231.414 164.574 231.751 164.742L235.874 167.098C236.211 167.267 236.127 167.603 235.79 167.856L231.751 170.212C231.414 170.465 230.825 170.465 230.488 170.296Z" fill="#06033E"/>
<path opacity="0.4" d="M236.8 173.917L232.676 171.561C232.34 171.393 232.424 171.056 232.76 170.804L236.8 168.448C237.22 168.195 237.725 168.195 238.062 168.363L242.185 170.72C242.522 170.888 242.438 171.225 242.101 171.477L238.062 173.833C237.725 174.086 237.136 174.086 236.8 173.917Z" fill="#06033E"/>
<path opacity="0.4" d="M176.464 131.925L172.34 129.569C172.004 129.401 172.088 129.064 172.425 128.812L176.464 126.455C176.885 126.203 177.39 126.203 177.726 126.371L181.849 128.727C182.186 128.896 182.102 129.232 181.765 129.485L177.726 131.841C177.39 132.093 176.8 132.178 176.464 131.925Z" fill="#06033E"/>
<path opacity="0.4" d="M170.152 128.308L166.029 125.952C165.692 125.783 165.777 125.447 166.113 125.194L170.152 122.838C170.573 122.586 171.078 122.586 171.415 122.754L175.538 125.11C175.875 125.279 175.791 125.615 175.454 125.868L171.415 128.224C171.078 128.476 170.489 128.476 170.152 128.308Z" fill="#06033E"/>
<path opacity="0.4" d="M163.841 124.691L159.718 122.335C159.381 122.166 159.465 121.83 159.802 121.577L163.841 119.221C164.262 118.969 164.767 118.969 165.103 119.137L169.227 121.493C169.563 121.661 169.479 121.998 169.143 122.25L165.103 124.607C164.767 124.859 164.178 124.859 163.841 124.691Z" fill="#06033E"/>
<path opacity="0.4" d="M157.53 121.07L153.406 118.713C153.07 118.545 153.154 118.209 153.491 117.956L157.53 115.6C157.951 115.347 158.456 115.347 158.792 115.516L162.915 117.872C163.252 118.04 163.168 118.377 162.831 118.629L158.876 120.986C158.456 121.238 157.866 121.238 157.53 121.07Z" fill="#06033E"/>
<path opacity="0.4" d="M164.009 117.283L159.886 114.927C159.549 114.759 159.634 114.422 159.97 114.17L161.317 113.412C161.737 113.16 162.242 113.16 162.579 113.328L166.702 115.684C167.039 115.853 166.955 116.189 166.618 116.442L165.272 117.199C164.935 117.452 164.346 117.452 164.009 117.283Z" fill="#06033E"/>
<path opacity="0.4" d="M172.256 122.08L168.133 119.724C167.796 119.556 167.88 119.219 168.217 118.967L169.563 118.209C169.984 117.957 170.489 117.957 170.826 118.125L174.949 120.481C175.286 120.65 175.202 120.986 174.865 121.239L173.518 121.996C173.182 122.248 172.593 122.248 172.256 122.08Z" fill="#06033E"/>
<path opacity="0.4" d="M178.568 125.701L174.444 123.345C174.108 123.177 174.192 122.84 174.528 122.588L175.875 121.83C176.295 121.578 176.8 121.578 177.137 121.746L181.26 124.102C181.597 124.271 181.513 124.607 181.176 124.86L179.83 125.617C179.409 125.87 178.904 125.87 178.568 125.701Z" fill="#06033E"/>
<path opacity="0.4" d="M184.795 129.318L180.671 126.962C180.335 126.794 180.419 126.457 180.755 126.205L182.102 125.448C182.523 125.195 183.028 125.195 183.364 125.363L187.488 127.72C187.824 127.888 187.74 128.225 187.403 128.477L186.057 129.234C185.72 129.487 185.131 129.487 184.795 129.318Z" fill="#06033E"/>
<path opacity="0.4" d="M191.106 132.936L186.983 130.579C186.646 130.411 186.73 130.075 187.067 129.822L188.413 129.065C188.834 128.812 189.339 128.812 189.675 128.981L193.799 131.337C194.135 131.505 194.051 131.842 193.715 132.094L192.368 132.852C192.032 133.104 191.443 133.104 191.106 132.936Z" fill="#06033E"/>
<path opacity="0.4" d="M226.197 153.131L222.073 150.775C221.737 150.606 221.821 150.27 222.158 150.017L223.504 149.26C223.925 149.008 224.43 149.008 224.766 149.176L228.89 151.532C229.226 151.7 229.142 152.037 228.805 152.289L227.459 153.047C227.038 153.299 226.449 153.383 226.197 153.131Z" fill="#06033E"/>
<path opacity="0.4" d="M232.424 156.752L228.301 154.396C227.964 154.228 228.048 153.891 228.385 153.638L229.731 152.881C230.152 152.629 230.657 152.629 230.993 152.797L235.117 155.153C235.453 155.322 235.369 155.658 235.033 155.911L233.686 156.668C233.35 156.92 232.761 157.005 232.424 156.752Z" fill="#06033E"/>
<path opacity="0.4" d="M238.735 160.453L234.612 158.013C234.275 157.845 234.359 157.508 234.696 157.256L236.042 156.498C236.463 156.246 236.968 156.246 237.305 156.414L241.428 158.77C241.765 158.939 241.68 159.275 241.344 159.528L239.997 160.285C239.577 160.538 239.072 160.622 238.735 160.453Z" fill="#06033E"/>
<path opacity="0.4" d="M244.962 164.068L240.839 161.712C240.502 161.544 240.586 161.207 240.923 160.955L242.269 160.198C242.69 159.945 243.195 159.945 243.532 160.113L247.655 162.47C247.992 162.638 247.907 162.975 247.571 163.227L246.224 163.984C245.888 164.237 245.299 164.237 244.962 164.068Z" fill="#06033E"/>
<path opacity="0.4" d="M182.775 135.628L178.652 133.272C178.315 133.104 178.399 132.767 178.736 132.515L182.775 130.158C183.196 129.906 183.701 129.906 184.037 130.074L188.161 132.431C188.497 132.599 188.413 132.935 188.077 133.188L184.037 135.544C183.701 135.797 183.112 135.797 182.775 135.628Z" fill="#06033E"/>
<path opacity="0.4" d="M189.17 139.249L185.047 136.893C184.711 136.725 184.795 136.388 185.131 136.136L189.17 133.78C189.591 133.527 190.096 133.527 190.433 133.695L194.556 136.052C194.893 136.22 194.809 136.557 194.472 136.809L190.433 139.165C190.012 139.418 189.507 139.502 189.17 139.249Z" fill="#06033E"/>
<path opacity="0.4" d="M195.482 142.949L191.358 140.592C191.022 140.424 191.106 140.087 191.443 139.835L195.482 137.479C195.902 137.226 196.407 137.226 196.744 137.395L200.867 139.751C201.204 139.919 201.12 140.256 200.783 140.508L196.744 142.864C196.407 143.117 195.818 143.117 195.482 142.949Z" fill="#06033E"/>
<path opacity="0.4" d="M201.793 146.566L197.67 144.21C197.333 144.041 197.417 143.705 197.754 143.452L201.793 141.096C202.214 140.844 202.719 140.844 203.055 141.012L207.179 143.368C207.515 143.536 207.431 143.873 207.094 144.125L203.055 146.482C202.719 146.734 202.13 146.818 201.793 146.566Z" fill="#06033E"/>
<path opacity="0.4" d="M208.188 150.269L204.065 147.913C203.728 147.744 203.813 147.408 204.149 147.155L208.188 144.799C208.609 144.547 209.114 144.547 209.451 144.715L213.574 147.071C213.911 147.239 213.826 147.576 213.49 147.829L209.451 150.185C209.03 150.437 208.441 150.437 208.188 150.269Z" fill="#06033E"/>
<path opacity="0.4" d="M214.5 153.89L210.376 151.534C210.04 151.365 210.124 151.029 210.461 150.776L214.5 148.42C214.921 148.168 215.425 148.168 215.762 148.336L219.885 150.692C220.222 150.861 220.138 151.197 219.801 151.45L215.762 153.806C215.425 154.058 214.836 154.142 214.5 153.89Z" fill="#06033E"/>
<path opacity="0.4" d="M220.811 157.593L216.688 155.237C216.351 155.069 216.435 154.732 216.772 154.48L220.811 152.123C221.232 151.871 221.737 151.871 222.073 152.039L226.197 154.395C226.533 154.564 226.449 154.9 226.112 155.153L222.073 157.509C221.737 157.761 221.147 157.761 220.811 157.593Z" fill="#06033E"/>
<path opacity="0.4" d="M227.122 161.21L222.999 158.854C222.662 158.686 222.746 158.349 223.083 158.097L227.122 155.741C227.543 155.488 228.048 155.488 228.385 155.656L232.508 158.013C232.845 158.181 232.76 158.517 232.424 158.77L228.385 161.126C228.048 161.379 227.459 161.379 227.122 161.21Z" fill="#06033E"/>
<path opacity="0.4" d="M233.518 164.91L229.394 162.553C229.058 162.385 229.142 162.048 229.478 161.796L233.518 159.44C233.938 159.187 234.443 159.187 234.78 159.356L238.903 161.712C239.24 161.88 239.156 162.217 238.819 162.469L234.78 164.825C234.443 165.078 233.854 165.078 233.518 164.91Z" fill="#06033E"/>
<path opacity="0.4" d="M146.59 136.05L134.473 129.065C134.136 128.897 134.22 128.56 134.557 128.308L138.596 125.951C139.017 125.699 139.522 125.699 139.858 125.867L151.976 132.852C152.313 133.02 152.228 133.357 151.892 133.609L147.853 135.965C147.516 136.218 146.927 136.302 146.59 136.05Z" fill="#06033E"/>
<path opacity="0.4" d="M224.429 180.987L212.312 174.003C211.975 173.834 212.059 173.498 212.396 173.245L216.435 170.889C216.856 170.636 217.361 170.637 217.697 170.805L229.815 177.789C230.152 177.958 230.068 178.294 229.731 178.547L225.692 180.903C225.355 181.155 224.766 181.239 224.429 180.987Z" fill="#06033E"/>
<path opacity="0.4" d="M199.1 174.506L194.977 172.15C194.64 171.982 194.724 171.645 195.061 171.392L199.942 168.616C200.362 168.363 200.867 168.363 201.204 168.531L205.327 170.888C205.664 171.056 205.58 171.392 205.243 171.645L200.362 174.422C200.026 174.674 199.437 174.674 199.1 174.506Z" fill="#06033E"/>
<path opacity="0.4" d="M153.07 147.913L146.506 144.126C146.17 143.958 146.254 143.621 146.59 143.369L151.471 140.592C151.892 140.34 152.397 140.34 152.733 140.508L159.297 144.295C159.634 144.463 159.55 144.8 159.213 145.052L154.332 147.829C153.996 148.081 153.407 148.081 153.07 147.913Z" fill="#06033E"/>
<path opacity="0.4" d="M192.957 170.972L186.393 167.185C186.057 167.017 186.141 166.68 186.478 166.428L191.358 163.651C191.779 163.398 192.284 163.398 192.621 163.567L199.184 167.353C199.521 167.522 199.437 167.858 199.1 168.111L194.219 170.888C193.883 171.14 193.294 171.14 192.957 170.972Z" fill="#06033E"/>
<path opacity="0.4" d="M161.405 146.104C161.715 145.924 162.097 145.923 162.408 146.103L190.433 162.306C190.769 162.474 190.769 162.811 190.433 163.063L185.468 165.924C185.131 166.093 184.542 166.093 184.206 165.924L156.425 149.863C156.093 149.67 156.092 149.191 156.424 148.998L161.405 146.104Z" fill="#06033E"/>
<path opacity="0.4" d="M216.772 181.071L221.316 183.68C221.568 183.848 221.568 184.1 221.232 184.269L219.212 185.447C218.876 185.615 218.455 185.615 218.118 185.531L213.574 182.922C213.322 182.754 213.322 182.501 213.658 182.333L215.678 181.155C216.014 180.987 216.519 180.987 216.772 181.071Z" fill="#06033E"/>
<path opacity="0.4" d="M210.376 177.449L214.92 180.058C215.173 180.226 215.173 180.479 214.836 180.647L212.817 181.825C212.48 181.993 212.059 181.993 211.723 181.909L207.179 179.301C206.926 179.132 206.926 178.88 207.263 178.712L209.282 177.533C209.703 177.281 210.124 177.281 210.376 177.449Z" fill="#06033E"/>
<path opacity="0.4" d="M204.065 173.75L208.609 176.359C208.862 176.527 208.862 176.78 208.525 176.948L206.505 178.126C206.169 178.294 205.748 178.294 205.412 178.21L200.867 175.601C200.615 175.433 200.615 175.181 200.952 175.012L202.971 173.834C203.308 173.582 203.813 173.582 204.065 173.75Z" fill="#06033E"/>
<path opacity="0.4" d="M213.911 175.434L218.455 178.042C218.707 178.211 218.707 178.463 218.371 178.631L216.351 179.81C216.014 179.978 215.594 179.978 215.257 179.894L210.713 177.285C210.46 177.117 210.46 176.864 210.797 176.696L212.817 175.518C213.153 175.265 213.658 175.265 213.911 175.434Z" fill="#06033E"/>
</g>
<g opacity="0.4">
<path opacity="0.4" d="M131.612 135.545L127.488 133.189C127.152 133.021 127.236 132.684 127.572 132.432L132.453 129.655C132.874 129.402 133.379 129.402 133.715 129.57L137.839 131.927C138.175 132.095 138.091 132.432 137.755 132.684L132.874 135.461C132.537 135.629 131.948 135.713 131.612 135.545Z" fill="#232323"/>
<path opacity="0.4" d="M137.923 139.158L133.799 136.802C133.463 136.634 133.547 136.297 133.884 136.045L138.764 133.268C139.185 133.015 139.69 133.015 140.027 133.184L144.15 135.54C144.487 135.708 144.402 136.045 144.066 136.297L139.185 139.074C138.848 139.327 138.259 139.327 137.923 139.158Z" fill="#232323"/>
<path opacity="0.4" d="M144.234 142.783L140.111 140.427C139.774 140.259 139.858 139.922 140.195 139.67L145.076 136.893C145.496 136.64 146.001 136.64 146.338 136.809L150.461 139.165C150.798 139.333 150.714 139.67 150.377 139.922L145.496 142.699C145.16 142.952 144.571 143.036 144.234 142.783Z" fill="#232323"/>
<path opacity="0.4" d="M153.07 139.835L148.947 137.479C148.61 137.311 148.694 136.974 149.031 136.722L153.07 134.366C153.491 134.113 153.996 134.113 154.332 134.281L158.456 136.638C158.792 136.806 158.708 137.142 158.371 137.395L154.332 139.751C153.911 140.004 153.322 140.004 153.07 139.835Z" fill="#232323"/>
<path opacity="0.4" d="M159.381 143.456L155.258 141.1C154.921 140.932 155.005 140.595 155.342 140.343L159.381 137.987C159.802 137.734 160.307 137.734 160.643 137.902L164.767 140.259C165.103 140.427 165.019 140.764 164.683 141.016L160.643 143.372C160.307 143.625 159.718 143.625 159.381 143.456Z" fill="#232323"/>
<path opacity="0.4" d="M165.692 147.156L161.569 144.799C161.232 144.631 161.317 144.294 161.653 144.042L165.692 141.686C166.113 141.433 166.618 141.433 166.955 141.602L171.078 143.958C171.415 144.126 171.331 144.463 170.994 144.715L166.955 147.071C166.618 147.24 166.029 147.324 165.692 147.156Z" fill="#232323"/>
<path opacity="0.4" d="M172.004 150.777L167.88 148.42C167.544 148.252 167.628 147.916 167.965 147.663L172.004 145.307C172.425 145.054 172.929 145.054 173.266 145.223L177.389 147.579C177.726 147.747 177.642 148.084 177.305 148.336L173.266 150.693C172.929 150.945 172.34 150.945 172.004 150.777Z" fill="#232323"/>
<path opacity="0.4" d="M178.399 154.394L174.276 152.038C173.939 151.869 174.023 151.533 174.36 151.28L178.399 148.924C178.82 148.672 179.325 148.672 179.661 148.84L183.785 151.196C184.121 151.364 184.037 151.701 183.701 151.954L179.661 154.31C179.325 154.562 178.736 154.646 178.399 154.394Z" fill="#232323"/>
<path opacity="0.4" d="M184.711 158.097L180.587 155.741C180.251 155.572 180.335 155.236 180.671 154.983L184.711 152.627C185.131 152.375 185.636 152.375 185.973 152.543L190.096 154.899C190.433 155.068 190.349 155.404 190.012 155.657L185.973 158.013C185.636 158.265 185.047 158.265 184.711 158.097Z" fill="#232323"/>
<path opacity="0.4" d="M191.022 161.714L186.898 159.358C186.562 159.19 186.646 158.853 186.983 158.601L191.022 156.244C191.443 155.992 191.947 155.992 192.284 156.16L196.407 158.516C196.744 158.685 196.66 159.021 196.323 159.274L192.284 161.63C191.947 161.882 191.358 161.967 191.022 161.714Z" fill="#232323"/>
<path opacity="0.4" d="M197.417 165.417L193.294 163.061C192.957 162.893 193.041 162.556 193.378 162.304L197.417 159.948C197.838 159.695 198.343 159.695 198.68 159.863L202.803 162.22C203.14 162.388 203.055 162.725 202.719 162.977L198.68 165.333C198.259 165.586 197.754 165.586 197.417 165.417Z" fill="#232323"/>
<path opacity="0.4" d="M203.728 169.035L199.605 166.678C199.268 166.51 199.353 166.173 199.689 165.921L203.728 163.565C204.149 163.312 204.654 163.312 204.991 163.481L209.114 165.837C209.451 166.005 209.366 166.342 209.03 166.594L204.991 168.95C204.654 169.203 204.065 169.287 203.728 169.035Z" fill="#232323"/>
<path opacity="0.4" d="M210.04 172.738L205.916 170.381C205.58 170.213 205.664 169.877 206 169.624L210.04 167.268C210.46 167.015 210.965 167.015 211.302 167.184L215.425 169.54C215.762 169.708 215.678 170.045 215.341 170.297L211.302 172.653C210.965 172.906 210.376 172.906 210.04 172.738Z" fill="#232323"/>
<path opacity="0.4" d="M162.41 138.07L158.287 135.713C157.95 135.545 158.035 135.209 158.371 134.956L162.41 132.6C162.831 132.347 163.336 132.347 163.673 132.516L167.796 134.872C168.133 135.04 168.049 135.377 167.712 135.629L163.673 137.986C163.252 138.238 162.663 138.238 162.41 138.07Z" fill="#232323"/>
<path opacity="0.4" d="M155.931 134.367L151.808 132.01C151.471 131.842 151.555 131.505 151.892 131.253L155.931 128.897C156.352 128.644 156.857 128.644 157.193 128.813L161.317 131.169C161.653 131.337 161.569 131.674 161.233 131.926L157.193 134.282C156.857 134.535 156.268 134.535 155.931 134.367Z" fill="#232323"/>
<path opacity="0.4" d="M149.535 130.663L140.7 125.53C140.363 125.362 140.447 125.025 140.784 124.773L144.823 122.416C145.244 122.164 145.749 122.164 146.085 122.332L154.921 127.465C155.258 127.634 155.174 127.97 154.837 128.223L150.798 130.579C150.377 130.831 149.788 130.831 149.535 130.663Z" fill="#232323"/>
<path opacity="0.4" d="M153.996 126.118L146.843 121.995C146.506 121.826 146.59 121.49 146.927 121.237L150.966 118.881C151.387 118.629 151.892 118.629 152.228 118.797L159.381 122.92C159.718 123.089 159.634 123.425 159.297 123.678L155.258 126.034C154.921 126.286 154.332 126.286 153.996 126.118Z" fill="#232323"/>
<path opacity="0.4" d="M168.722 141.687L164.598 139.331C164.262 139.162 164.346 138.826 164.683 138.573L168.722 136.217C169.143 135.965 169.647 135.965 169.984 136.133L174.107 138.489C174.444 138.657 174.36 138.994 174.023 139.246L169.984 141.603C169.647 141.855 169.058 141.939 168.722 141.687Z" fill="#232323"/>
<path opacity="0.4" d="M175.033 145.386L170.91 143.03C170.573 142.862 170.657 142.525 170.994 142.273L175.033 139.916C175.454 139.664 175.959 139.664 176.295 139.832L180.419 142.188C180.755 142.357 180.671 142.693 180.335 142.946L176.295 145.302C175.959 145.554 175.37 145.554 175.033 145.386Z" fill="#232323"/>
<path opacity="0.4" d="M181.344 149.007L177.221 146.651C176.884 146.483 176.969 146.146 177.305 145.894L181.344 143.537C181.765 143.285 182.27 143.285 182.607 143.453L186.73 145.809C187.067 145.978 186.982 146.314 186.646 146.567L182.607 148.923C182.27 149.175 181.681 149.26 181.344 149.007Z" fill="#232323"/>
<path opacity="0.4" d="M187.74 152.71L183.616 150.354C183.28 150.186 183.364 149.849 183.701 149.597L187.74 147.241C188.161 146.988 188.666 146.988 189.002 147.156L193.126 149.513C193.462 149.681 193.378 150.017 193.041 150.27L189.002 152.626C188.581 152.879 188.076 152.879 187.74 152.71Z" fill="#232323"/>
<path opacity="0.4" d="M194.051 156.327L189.928 153.971C189.591 153.803 189.675 153.466 190.012 153.214L194.051 150.858C194.472 150.605 194.977 150.605 195.313 150.774L199.437 153.13C199.773 153.298 199.689 153.635 199.353 153.887L195.313 156.243C194.977 156.496 194.388 156.58 194.051 156.327Z" fill="#232323"/>
<path opacity="0.4" d="M200.362 160.031L196.239 157.674C195.902 157.506 195.987 157.169 196.323 156.917L200.362 154.561C200.783 154.308 201.288 154.308 201.625 154.477L205.748 156.833C206.085 157.001 206 157.338 205.664 157.59L201.625 159.946C201.288 160.199 200.699 160.199 200.362 160.031Z" fill="#232323"/>
<path opacity="0.4" d="M206.758 163.652L202.635 161.295C202.298 161.127 202.382 160.791 202.719 160.538L206.758 158.182C207.179 157.929 207.684 157.929 208.02 158.098L212.144 160.454C212.48 160.622 212.396 160.959 212.059 161.211L208.02 163.568C207.599 163.82 207.094 163.904 206.758 163.652Z" fill="#232323"/>
<path opacity="0.4" d="M213.069 167.351L208.946 164.995C208.609 164.826 208.693 164.49 209.03 164.237L213.069 161.881C213.49 161.629 213.995 161.629 214.332 161.797L218.455 164.153C218.792 164.321 218.707 164.658 218.371 164.911L214.332 167.267C213.995 167.519 213.406 167.519 213.069 167.351Z" fill="#232323"/>
<path opacity="0.4" d="M219.381 170.972L215.257 168.616C214.921 168.448 215.005 168.111 215.341 167.858L219.381 165.502C219.801 165.25 220.306 165.25 220.643 165.418L224.766 167.774C225.103 167.943 225.019 168.279 224.682 168.532L220.643 170.888C220.306 171.14 219.717 171.224 219.381 170.972Z" fill="#232323"/>
<path opacity="0.4" d="M230.657 177.534L221.737 172.401C221.4 172.233 221.484 171.896 221.821 171.644L225.86 169.287C226.281 169.035 226.786 169.035 227.122 169.203L236.042 174.336C236.379 174.505 236.295 174.841 235.958 175.094L231.919 177.45C231.582 177.702 230.993 177.702 230.657 177.534Z" fill="#232323"/>
<path opacity="0.4" d="M243.027 170.382L235.453 166.006C235.117 165.838 235.201 165.502 235.537 165.249L239.577 162.893C239.997 162.64 240.502 162.64 240.839 162.809L248.412 167.185C248.749 167.353 248.665 167.689 248.328 167.942L244.289 170.298C243.868 170.551 243.363 170.551 243.027 170.382Z" fill="#232323"/>
<path opacity="0.4" d="M179.83 141.015L175.706 138.659C175.37 138.49 175.454 138.154 175.791 137.901L179.83 135.545C180.251 135.293 180.755 135.293 181.092 135.461L185.215 137.817C185.552 137.986 185.468 138.322 185.131 138.575L181.092 140.931C180.671 141.183 180.166 141.183 179.83 141.015Z" fill="#232323"/>
<path opacity="0.4" d="M173.35 137.23L169.227 134.874C168.89 134.705 168.974 134.369 169.311 134.116L173.35 131.76C173.771 131.508 174.276 131.508 174.612 131.676L178.736 134.032C179.072 134.2 178.988 134.537 178.652 134.789L174.612 137.146C174.192 137.398 173.603 137.482 173.35 137.23Z" fill="#232323"/>
<path opacity="0.4" d="M166.786 133.527L162.663 131.17C162.327 131.002 162.411 130.666 162.747 130.413L166.786 128.057C167.207 127.804 167.712 127.804 168.049 127.973L172.172 130.329C172.509 130.497 172.425 130.834 172.088 131.086L168.049 133.443C167.712 133.695 167.123 133.695 166.786 133.527Z" fill="#232323"/>
<path opacity="0.4" d="M160.307 129.738L156.183 127.381C155.847 127.213 155.931 126.877 156.268 126.624L160.307 124.268C160.728 124.015 161.232 124.015 161.569 124.184L165.692 126.54C166.029 126.708 165.945 127.045 165.608 127.297L161.569 129.653C161.232 129.906 160.643 129.99 160.307 129.738Z" fill="#232323"/>
<path opacity="0.4" d="M186.141 144.628L182.018 142.272C181.681 142.104 181.765 141.767 182.102 141.515L186.141 139.158C186.562 138.906 187.067 138.906 187.403 139.074L191.527 141.431C191.863 141.599 191.779 141.935 191.443 142.188L187.403 144.544C187.067 144.797 186.478 144.881 186.141 144.628Z" fill="#232323"/>
<path opacity="0.4" d="M192.452 148.335L188.329 145.979C187.992 145.811 188.077 145.474 188.413 145.222L192.452 142.866C192.873 142.613 193.378 142.613 193.715 142.781L197.838 145.138C198.175 145.306 198.09 145.642 197.754 145.895L193.715 148.251C193.378 148.504 192.789 148.504 192.452 148.335Z" fill="#232323"/>
<path opacity="0.4" d="M198.848 151.952L194.724 149.596C194.388 149.428 194.472 149.091 194.809 148.839L198.848 146.483C199.269 146.23 199.773 146.23 200.11 146.399L204.233 148.755C204.57 148.923 204.486 149.26 204.149 149.512L200.11 151.868C199.689 152.121 199.184 152.205 198.848 151.952Z" fill="#232323"/>
<path opacity="0.4" d="M205.159 155.656L201.036 153.299C200.699 153.131 200.783 152.794 201.12 152.542L205.159 150.186C205.58 149.933 206.085 149.933 206.421 150.102L210.545 152.458C210.881 152.626 210.797 152.963 210.461 153.215L206.421 155.571C206.085 155.824 205.496 155.824 205.159 155.656Z" fill="#232323"/>
<path opacity="0.4" d="M211.47 159.273L207.347 156.917C207.01 156.748 207.095 156.412 207.431 156.159L211.47 153.803C211.891 153.551 212.396 153.551 212.733 153.719L216.856 156.075C217.193 156.243 217.108 156.58 216.772 156.832L212.733 159.189C212.396 159.441 211.807 159.525 211.47 159.273Z" fill="#232323"/>
<path opacity="0.4" d="M217.866 162.976L213.742 160.62C213.406 160.451 213.49 160.115 213.827 159.862L217.866 157.506C218.287 157.254 218.791 157.254 219.128 157.422L223.251 159.778C223.588 159.947 223.504 160.283 223.167 160.536L219.128 162.892C218.707 163.144 218.118 163.144 217.866 162.976Z" fill="#232323"/>
<path opacity="0.4" d="M224.177 166.597L220.054 164.241C219.717 164.072 219.801 163.736 220.138 163.483L224.177 161.127C224.598 160.875 225.103 160.875 225.439 161.043L229.563 163.399C229.899 163.568 229.815 163.904 229.479 164.157L225.439 166.513C225.103 166.765 224.514 166.849 224.177 166.597Z" fill="#232323"/>
<path opacity="0.4" d="M230.488 170.296L226.365 167.94C226.028 167.772 226.113 167.435 226.449 167.183L230.488 164.826C230.909 164.574 231.414 164.574 231.751 164.742L235.874 167.098C236.211 167.267 236.127 167.603 235.79 167.856L231.751 170.212C231.414 170.465 230.825 170.465 230.488 170.296Z" fill="#232323"/>
<path opacity="0.4" d="M236.8 173.917L232.676 171.561C232.34 171.393 232.424 171.056 232.76 170.804L236.8 168.448C237.22 168.195 237.725 168.195 238.062 168.363L242.185 170.72C242.522 170.888 242.438 171.225 242.101 171.477L238.062 173.833C237.725 174.086 237.136 174.086 236.8 173.917Z" fill="#232323"/>
<path opacity="0.4" d="M176.464 131.925L172.34 129.569C172.004 129.401 172.088 129.064 172.425 128.812L176.464 126.455C176.885 126.203 177.39 126.203 177.726 126.371L181.849 128.727C182.186 128.896 182.102 129.232 181.765 129.485L177.726 131.841C177.39 132.093 176.8 132.178 176.464 131.925Z" fill="#232323"/>
<path opacity="0.4" d="M170.152 128.308L166.029 125.952C165.692 125.783 165.777 125.447 166.113 125.194L170.152 122.838C170.573 122.586 171.078 122.586 171.415 122.754L175.538 125.11C175.875 125.279 175.791 125.615 175.454 125.868L171.415 128.224C171.078 128.476 170.489 128.476 170.152 128.308Z" fill="#232323"/>
<path opacity="0.4" d="M163.841 124.691L159.718 122.335C159.381 122.166 159.465 121.83 159.802 121.577L163.841 119.221C164.262 118.969 164.767 118.969 165.103 119.137L169.227 121.493C169.563 121.661 169.479 121.998 169.143 122.25L165.103 124.607C164.767 124.859 164.178 124.859 163.841 124.691Z" fill="#232323"/>
<path opacity="0.4" d="M157.53 121.07L153.406 118.713C153.07 118.545 153.154 118.209 153.491 117.956L157.53 115.6C157.951 115.347 158.456 115.347 158.792 115.516L162.915 117.872C163.252 118.04 163.168 118.377 162.831 118.629L158.876 120.986C158.456 121.238 157.866 121.238 157.53 121.07Z" fill="#232323"/>
<path opacity="0.4" d="M164.009 117.283L159.886 114.927C159.549 114.759 159.634 114.422 159.97 114.17L161.317 113.412C161.737 113.16 162.242 113.16 162.579 113.328L166.702 115.684C167.039 115.853 166.955 116.189 166.618 116.442L165.272 117.199C164.935 117.452 164.346 117.452 164.009 117.283Z" fill="#232323"/>
<path opacity="0.4" d="M172.256 122.08L168.133 119.724C167.796 119.556 167.88 119.219 168.217 118.967L169.563 118.209C169.984 117.957 170.489 117.957 170.826 118.125L174.949 120.481C175.286 120.65 175.202 120.986 174.865 121.239L173.518 121.996C173.182 122.248 172.593 122.248 172.256 122.08Z" fill="#232323"/>
<path opacity="0.4" d="M178.568 125.701L174.444 123.345C174.108 123.177 174.192 122.84 174.528 122.588L175.875 121.83C176.295 121.578 176.8 121.578 177.137 121.746L181.26 124.102C181.597 124.271 181.513 124.607 181.176 124.86L179.83 125.617C179.409 125.87 178.904 125.87 178.568 125.701Z" fill="#232323"/>
<path opacity="0.4" d="M184.795 129.318L180.671 126.962C180.335 126.794 180.419 126.457 180.755 126.205L182.102 125.448C182.523 125.195 183.028 125.195 183.364 125.363L187.488 127.72C187.824 127.888 187.74 128.225 187.403 128.477L186.057 129.234C185.72 129.487 185.131 129.487 184.795 129.318Z" fill="#232323"/>
<path opacity="0.4" d="M191.106 132.936L186.983 130.579C186.646 130.411 186.73 130.075 187.067 129.822L188.413 129.065C188.834 128.812 189.339 128.812 189.675 128.981L193.799 131.337C194.135 131.505 194.051 131.842 193.715 132.094L192.368 132.852C192.032 133.104 191.443 133.104 191.106 132.936Z" fill="#232323"/>
<path opacity="0.4" d="M226.197 153.131L222.073 150.775C221.737 150.606 221.821 150.27 222.158 150.017L223.504 149.26C223.925 149.008 224.43 149.008 224.766 149.176L228.89 151.532C229.226 151.7 229.142 152.037 228.805 152.289L227.459 153.047C227.038 153.299 226.449 153.383 226.197 153.131Z" fill="#232323"/>
<path opacity="0.4" d="M232.424 156.752L228.301 154.396C227.964 154.228 228.048 153.891 228.385 153.638L229.731 152.881C230.152 152.629 230.657 152.629 230.993 152.797L235.117 155.153C235.453 155.322 235.369 155.658 235.033 155.911L233.686 156.668C233.35 156.92 232.761 157.005 232.424 156.752Z" fill="#232323"/>
<path opacity="0.4" d="M238.735 160.453L234.612 158.013C234.275 157.845 234.359 157.508 234.696 157.256L236.042 156.498C236.463 156.246 236.968 156.246 237.305 156.414L241.428 158.77C241.765 158.939 241.68 159.275 241.344 159.528L239.997 160.285C239.577 160.538 239.072 160.622 238.735 160.453Z" fill="#232323"/>
<path opacity="0.4" d="M244.962 164.068L240.839 161.712C240.502 161.544 240.586 161.207 240.923 160.955L242.269 160.198C242.69 159.945 243.195 159.945 243.532 160.113L247.655 162.47C247.992 162.638 247.907 162.975 247.571 163.227L246.224 163.984C245.888 164.237 245.299 164.237 244.962 164.068Z" fill="#232323"/>
<path opacity="0.4" d="M182.775 135.628L178.652 133.272C178.315 133.104 178.399 132.767 178.736 132.515L182.775 130.158C183.196 129.906 183.701 129.906 184.037 130.074L188.161 132.431C188.497 132.599 188.413 132.935 188.077 133.188L184.037 135.544C183.701 135.797 183.112 135.797 182.775 135.628Z" fill="#232323"/>
<path opacity="0.4" d="M189.17 139.249L185.047 136.893C184.711 136.725 184.795 136.388 185.131 136.136L189.17 133.78C189.591 133.527 190.096 133.527 190.433 133.695L194.556 136.052C194.893 136.22 194.809 136.557 194.472 136.809L190.433 139.165C190.012 139.418 189.507 139.502 189.17 139.249Z" fill="#232323"/>
<path opacity="0.4" d="M195.482 142.949L191.358 140.592C191.022 140.424 191.106 140.087 191.443 139.835L195.482 137.479C195.902 137.226 196.407 137.226 196.744 137.395L200.867 139.751C201.204 139.919 201.12 140.256 200.783 140.508L196.744 142.864C196.407 143.117 195.818 143.117 195.482 142.949Z" fill="#232323"/>
<path opacity="0.4" d="M201.793 146.566L197.67 144.21C197.333 144.041 197.417 143.705 197.754 143.452L201.793 141.096C202.214 140.844 202.719 140.844 203.055 141.012L207.179 143.368C207.515 143.536 207.431 143.873 207.094 144.125L203.055 146.482C202.719 146.734 202.13 146.818 201.793 146.566Z" fill="#232323"/>
<path opacity="0.4" d="M208.188 150.269L204.065 147.913C203.728 147.744 203.813 147.408 204.149 147.155L208.188 144.799C208.609 144.547 209.114 144.547 209.451 144.715L213.574 147.071C213.911 147.239 213.826 147.576 213.49 147.829L209.451 150.185C209.03 150.437 208.441 150.437 208.188 150.269Z" fill="#232323"/>
<path opacity="0.4" d="M214.5 153.89L210.376 151.534C210.04 151.365 210.124 151.029 210.461 150.776L214.5 148.42C214.921 148.168 215.425 148.168 215.762 148.336L219.885 150.692C220.222 150.861 220.138 151.197 219.801 151.45L215.762 153.806C215.425 154.058 214.836 154.142 214.5 153.89Z" fill="#232323"/>
<path opacity="0.4" d="M220.811 157.593L216.688 155.237C216.351 155.069 216.435 154.732 216.772 154.48L220.811 152.123C221.232 151.871 221.737 151.871 222.073 152.039L226.197 154.395C226.533 154.564 226.449 154.9 226.112 155.153L222.073 157.509C221.737 157.761 221.147 157.761 220.811 157.593Z" fill="#232323"/>
<path opacity="0.4" d="M227.122 161.21L222.999 158.854C222.662 158.686 222.746 158.349 223.083 158.097L227.122 155.741C227.543 155.488 228.048 155.488 228.385 155.656L232.508 158.013C232.845 158.181 232.76 158.517 232.424 158.77L228.385 161.126C228.048 161.379 227.459 161.379 227.122 161.21Z" fill="#232323"/>
<path opacity="0.4" d="M233.518 164.91L229.394 162.553C229.058 162.385 229.142 162.048 229.478 161.796L233.518 159.44C233.938 159.187 234.443 159.187 234.78 159.356L238.903 161.712C239.24 161.88 239.156 162.217 238.819 162.469L234.78 164.825C234.443 165.078 233.854 165.078 233.518 164.91Z" fill="#232323"/>
<path opacity="0.4" d="M146.59 136.05L134.473 129.065C134.136 128.897 134.22 128.56 134.557 128.308L138.596 125.951C139.017 125.699 139.522 125.699 139.858 125.867L151.976 132.852C152.313 133.02 152.228 133.357 151.892 133.609L147.853 135.965C147.516 136.218 146.927 136.302 146.59 136.05Z" fill="#232323"/>
<path opacity="0.4" d="M224.429 180.987L212.312 174.003C211.975 173.834 212.059 173.498 212.396 173.245L216.435 170.889C216.856 170.636 217.361 170.637 217.697 170.805L229.815 177.789C230.152 177.958 230.068 178.294 229.731 178.547L225.692 180.903C225.355 181.155 224.766 181.239 224.429 180.987Z" fill="#232323"/>
<path opacity="0.4" d="M199.1 174.506L194.977 172.15C194.64 171.982 194.724 171.645 195.061 171.392L199.942 168.616C200.362 168.363 200.867 168.363 201.204 168.531L205.327 170.888C205.664 171.056 205.58 171.392 205.243 171.645L200.362 174.422C200.026 174.674 199.437 174.674 199.1 174.506Z" fill="#232323"/>
<path opacity="0.4" d="M153.07 147.913L146.506 144.126C146.17 143.958 146.254 143.621 146.59 143.369L151.471 140.592C151.892 140.34 152.397 140.34 152.733 140.508L159.297 144.295C159.634 144.463 159.55 144.8 159.213 145.052L154.332 147.829C153.996 148.081 153.407 148.081 153.07 147.913Z" fill="#232323"/>
<path opacity="0.4" d="M192.957 170.972L186.393 167.185C186.057 167.017 186.141 166.68 186.478 166.428L191.358 163.651C191.779 163.398 192.284 163.398 192.621 163.567L199.184 167.353C199.521 167.522 199.437 167.858 199.1 168.111L194.219 170.888C193.883 171.14 193.294 171.14 192.957 170.972Z" fill="#232323"/>
<path opacity="0.4" d="M161.405 146.104C161.715 145.924 162.097 145.923 162.408 146.103L190.433 162.306C190.769 162.474 190.769 162.811 190.433 163.063L185.468 165.924C185.131 166.093 184.542 166.093 184.206 165.924L156.425 149.863C156.093 149.67 156.092 149.191 156.424 148.998L161.405 146.104Z" fill="#232323"/>
<path opacity="0.4" d="M216.772 181.071L221.316 183.68C221.568 183.848 221.568 184.1 221.232 184.269L219.212 185.447C218.876 185.615 218.455 185.615 218.118 185.531L213.574 182.922C213.322 182.754 213.322 182.501 213.658 182.333L215.678 181.155C216.014 180.987 216.519 180.987 216.772 181.071Z" fill="#232323"/>
<path opacity="0.4" d="M210.376 177.449L214.92 180.058C215.173 180.226 215.173 180.479 214.836 180.647L212.817 181.825C212.48 181.993 212.059 181.993 211.723 181.909L207.179 179.301C206.926 179.132 206.926 178.88 207.263 178.712L209.282 177.533C209.703 177.281 210.124 177.281 210.376 177.449Z" fill="#232323"/>
<path opacity="0.4" d="M204.065 173.75L208.609 176.359C208.862 176.527 208.862 176.78 208.525 176.948L206.505 178.126C206.169 178.294 205.748 178.294 205.412 178.21L200.867 175.601C200.615 175.433 200.615 175.181 200.952 175.012L202.971 173.834C203.308 173.582 203.813 173.582 204.065 173.75Z" fill="#232323"/>
<path opacity="0.4" d="M213.911 175.434L218.455 178.042C218.707 178.211 218.707 178.463 218.371 178.631L216.351 179.81C216.014 179.978 215.594 179.978 215.257 179.894L210.713 177.285C210.46 177.117 210.46 176.864 210.797 176.696L212.817 175.518C213.153 175.265 213.658 175.265 213.911 175.434Z" fill="#232323"/>
</g>
<path d="M280.979 168.028L159.886 98.0992C157.95 97.0053 157.025 94.3125 157.698 92.1245L185.047 3.26161C185.72 1.07369 187.824 0.148037 189.759 1.24199L310.852 71.1711C312.787 72.265 313.713 74.9578 313.04 77.1458L285.691 166.009C284.934 168.197 282.83 169.122 280.979 168.028Z" fill="url(#paint7_radial_619_35235)"/>
<path d="M279.8 164.909L162.41 97.0834C160.559 96.0736 159.633 93.465 160.307 91.3612L186.477 6.36918C187.151 4.26542 189.17 3.42391 190.937 4.43372L308.327 72.259C310.179 73.2688 311.104 75.8775 310.431 77.9813L284.26 162.973C283.671 165.077 281.652 165.919 279.8 164.909Z" fill="url(#paint8_linear_619_35235)"/>
<path opacity="0.4" d="M279.8 164.909L162.41 97.0834C160.559 96.0736 159.633 93.465 160.307 91.3612L186.477 6.36918C187.151 4.26542 189.17 3.42391 190.937 4.43372L308.327 72.259C310.179 73.2688 311.104 75.8775 310.431 77.9812L284.26 162.973C283.671 165.077 281.652 165.919 279.8 164.909Z" fill="#06033E"/>
<path opacity="0.4" d="M279.8 164.909L162.41 97.0834C160.559 96.0736 159.633 93.465 160.307 91.3612L186.477 6.36918C187.151 4.26542 189.17 3.42391 190.937 4.43372L308.327 72.259C310.179 73.2688 311.104 75.8775 310.431 77.9812L284.26 162.973C283.671 165.077 281.652 165.919 279.8 164.909Z" fill="#7F7B5A"/>
<g filter="url(#filter0_b_619_35235)">
<path d="M278.1 163.584L162.795 96.9639C160.965 95.8658 159.989 93.4255 160.721 91.2292L186.832 6.55043C187.442 4.47617 189.516 3.62205 191.225 4.59818L306.529 71.0966C308.359 72.1948 309.336 74.6351 308.603 76.8313L282.492 161.51C281.882 163.706 279.93 164.56 278.1 163.584Z" fill="#7F7B5A"/>
</g>
<g opacity="0.5">
<g filter="url(#filter1_b_619_35235)">
<path d="M279.887 163.702L164.582 97.0811C162.752 95.9829 161.776 93.5426 162.508 91.3464L188.619 6.66762C189.229 4.59336 191.303 3.73924 193.012 4.71536L308.316 71.2138C310.147 72.3119 311.123 74.7523 310.391 76.9485L284.279 161.627C283.669 163.824 281.717 164.678 279.887 163.702Z" fill="#7F7B5A"/>
</g>
</g>
<path d="M306.32 71.6404L191.127 5.33658C190.029 4.72829 188.81 4.72829 187.835 5.45824C188.323 5.45824 188.932 5.5799 189.542 5.82322L304.735 72.127C306.564 73.2219 307.539 75.6551 306.808 77.8449L280.721 162.276C280.478 163.006 280.112 163.614 279.502 164.101C280.721 164.101 281.818 163.249 282.306 161.789L308.392 77.3583C309.124 75.1685 308.148 72.6136 306.32 71.6404Z" fill="#6B5C38"/>
<path opacity="0.4" d="M162.495 187.968C161.401 187.968 160.391 187.715 159.549 187.294L127.74 168.866C126.899 168.361 126.394 167.687 126.394 166.93C126.394 166.004 127.067 165.163 128.161 164.49L144.571 155.065C146.59 153.887 149.535 153.803 151.303 154.812L183.111 173.157C183.953 173.662 184.458 174.335 184.458 175.093C184.458 176.018 183.785 176.86 182.691 177.533L166.281 186.958C165.187 187.631 163.841 187.968 162.495 187.968ZM148.357 154.981C147.179 154.981 146.001 155.233 145.075 155.822L128.666 165.247C127.825 165.752 127.404 166.341 127.404 166.846C127.404 167.435 127.825 167.772 128.245 168.024L160.054 186.453C161.485 187.294 164.178 187.21 165.861 186.201L182.27 176.776C183.111 176.271 183.532 175.682 183.532 175.177C183.532 174.588 183.111 174.251 182.691 173.999L150.882 155.654C150.124 155.233 149.283 154.981 148.357 154.981Z" fill="#06033E"/>
<path d="M89.7043 123.765C87.4323 123.765 85.1602 123.175 83.1406 121.997L59.0736 108.113C58.0638 107.523 57.3905 106.43 57.3905 105.251C57.3905 104.073 57.9796 102.979 59.0736 102.39L83.1406 88.5054C87.1798 86.1492 92.2289 86.1492 96.2681 88.5054L120.335 102.39C121.345 102.979 122.018 104.073 122.018 105.251C122.018 106.43 121.429 107.523 120.335 108.113L96.2681 121.997C94.2485 123.175 91.9764 123.765 89.7043 123.765ZM83.898 120.651C87.4323 122.755 91.8923 122.755 95.5107 120.651L119.578 106.766C120.167 106.43 120.419 105.84 120.419 105.251C120.419 104.662 120.083 104.073 119.578 103.737L95.5107 89.8519C91.9764 87.7481 87.5164 87.7481 83.898 89.8519L59.8309 103.737C59.2419 104.073 58.9894 104.662 58.9894 105.251C58.9894 105.925 59.326 106.43 59.8309 106.766L83.898 120.651Z" fill="url(#paint9_linear_619_35235)"/>
<defs>
<filter id="filter0_b_619_35235" x="156.476" y="0.195312" width="156.372" height="167.789" filterUnits="userSpaceOnUse" color-interpolation-filters="sRGB">
<feFlood flood-opacity="0" result="BackgroundImageFix"/>
<feGaussianBlur in="BackgroundImage" stdDeviation="2"/>
<feComposite in2="SourceAlpha" operator="in" result="effect1_backgroundBlur_619_35235"/>
<feBlend mode="normal" in="SourceGraphic" in2="effect1_backgroundBlur_619_35235" result="shape"/>
</filter>
<filter id="filter1_b_619_35235" x="158.263" y="0.3125" width="156.372" height="167.789" filterUnits="userSpaceOnUse" color-interpolation-filters="sRGB">
<feFlood flood-opacity="0" result="BackgroundImageFix"/>
<feGaussianBlur in="BackgroundImage" stdDeviation="2"/>
<feComposite in2="SourceAlpha" operator="in" result="effect1_backgroundBlur_619_35235"/>
<feBlend mode="normal" in="SourceGraphic" in2="effect1_backgroundBlur_619_35235" result="shape"/>
</filter>
<linearGradient id="paint0_linear_619_35235" x1="341.571" y1="203.383" x2="369.043" y2="203.383" gradientUnits="userSpaceOnUse">
<stop stop-color="#F27B50"/>
<stop offset="1" stop-color="#BA54EC"/>
</linearGradient>
<linearGradient id="paint1_linear_619_35235" x1="303.958" y1="165.774" x2="350.054" y2="165.774" gradientUnits="userSpaceOnUse">
<stop stop-color="#F27B50"/>
<stop offset="1" stop-color="#BA54EC"/>
</linearGradient>
<linearGradient id="paint2_linear_619_35235" x1="0.00639544" y1="181.169" x2="46.1027" y2="181.169" gradientUnits="userSpaceOnUse">
<stop stop-color="#F27B50"/>
<stop offset="1" stop-color="#BA54EC"/>
</linearGradient>
<linearGradient id="paint3_linear_619_35235" x1="53.6382" y1="178.319" x2="300.047" y2="178.319" gradientUnits="userSpaceOnUse">
<stop stop-color="#F27B50"/>
<stop offset="1" stop-color="#BA54EC"/>
</linearGradient>
<radialGradient id="paint4_radial_619_35235" cx="0" cy="0" r="1" gradientUnits="userSpaceOnUse" gradientTransform="translate(189.546 -3.8875) scale(187.905)">
<stop stop-color="#7E6538"/>
<stop offset="0.4742" stop-color="#76744F"/>
<stop offset="0.5947" stop-color="#303F34"/>
<stop offset="0.7421" stop-color="#4B757A"/>
<stop offset="0.8016" stop-color="#1B2631"/>
</radialGradient>
<radialGradient id="paint5_radial_619_35235" cx="0" cy="0" r="1" gradientUnits="userSpaceOnUse" gradientTransform="translate(74.6189 147.013) scale(205.472)">
<stop stop-color="#856C3C"/>
<stop offset="0.4742" stop-color="#605D3C"/>
<stop offset="0.5679" stop-color="#667257"/>
<stop offset="0.6825" stop-color="#426C7A"/>
<stop offset="0.7381" stop-color="#1C2833"/>
</radialGradient>
<radialGradient id="paint6_radial_619_35235" cx="0" cy="0" r="1" gradientUnits="userSpaceOnUse" gradientTransform="translate(93.5169 105.774) scale(184.256)">
<stop stop-color="#8B7F5A"/>
<stop offset="0.505208" stop-color="#6B5935"/>
<stop offset="0.661458" stop-color="#656E50"/>
<stop offset="0.796875" stop-color="#426C7B"/>
<stop offset="1" stop-color="#1F2A35"/>
</radialGradient>
<radialGradient id="paint7_radial_619_35235" cx="0" cy="0" r="1" gradientUnits="userSpaceOnUse" gradientTransform="translate(139.419 35.3101) scale(187.942)">
<stop stop-color="#7E663A"/>
<stop offset="0.4742" stop-color="#796F45"/>
<stop offset="0.5875" stop-color="#4C5C43"/>
<stop offset="0.7262" stop-color="#4A7073"/>
<stop offset="1" stop-color="#1F2A37"/>
</radialGradient>
<linearGradient id="paint8_linear_619_35235" x1="160.076" y1="84.6393" x2="310.677" y2="84.6393" gradientUnits="userSpaceOnUse">
<stop stop-color="#715C35"/>
<stop offset="1" stop-color="#42686B"/>
</linearGradient>
<linearGradient id="paint9_linear_619_35235" x1="57.3995" y1="105.278" x2="122.12" y2="105.278" gradientUnits="userSpaceOnUse">
<stop stop-color="#F27B50"/>
<stop offset="1" stop-color="#BA54EC"/>
</linearGradient>
</defs>
</svg>
