<svg width="20" height="20" viewBox="0 0 20 20" fill="none" xmlns="http://www.w3.org/2000/svg">
<path d="M14.1667 2.4987H17.5C17.721 2.4987 17.933 2.5865 18.0893 2.74278C18.2455 2.89906 18.3333 3.11102 18.3333 3.33203V16.6654C18.3333 16.8864 18.2455 17.0983 18.0893 17.2546C17.933 17.4109 17.721 17.4987 17.5 17.4987H2.5C2.27899 17.4987 2.06702 17.4109 1.91074 17.2546C1.75446 17.0983 1.66667 16.8864 1.66667 16.6654V3.33203C1.66667 3.11102 1.75446 2.89906 1.91074 2.74278C2.06702 2.5865 2.27899 2.4987 2.5 2.4987H5.83333V0.832031H7.5V2.4987H12.5V0.832031H14.1667V2.4987ZM12.5 4.16536H7.5V5.83203H5.83333V4.16536H3.33333V7.4987H16.6667V4.16536H14.1667V5.83203H12.5V4.16536ZM16.6667 9.16536H3.33333V15.832H16.6667V9.16536Z" fill="white"/>
</svg>
