<svg width="17" height="14" viewBox="0 0 17 14" fill="none" xmlns="http://www.w3.org/2000/svg">
<ellipse opacity="0.4" rx="5.83395" ry="4.24287" transform="matrix(0.965115 -0.536555 0.340702 0.86733 8.95904 6.91692)" fill="white"/>
<path fill-rule="evenodd" clip-rule="evenodd" d="M5.03748 1.55753C4.97712 1.71163 4.9559 1.86047 4.96978 1.9934L2.12965 1.97062C0.972683 1.96134 0.032962 2.90015 0.0460459 4.0522L0.124318 10.9442C0.137635 12.1167 1.09885 13.0708 2.25582 13.0801L13.9292 13.1737C15.1069 13.1832 16.0465 12.2443 16.0334 11.0923L15.9548 4.1798C15.9417 3.02775 14.9806 2.0737 13.8236 2.06442L10.7821 2.04002C10.7979 1.90538 10.7781 1.75537 10.7192 1.6031L10.5281 1.14901C10.3792 0.77745 9.94202 0.485954 9.5702 0.482972L6.16124 0.45563C5.78927 0.452647 5.35851 0.716653 5.21825 1.10642L5.03748 1.55753ZM7.96739 10.3076C6.35585 10.2947 5.03947 8.98815 5.02124 7.38345C5.00302 5.77876 6.28996 4.49306 7.9015 4.50599C9.51304 4.51891 10.8294 5.82549 10.8477 7.43018C10.8659 9.03503 9.57893 10.3206 7.96739 10.3076ZM13.3135 4.44661C13.1275 4.44512 12.9604 4.27919 12.9583 4.09407C12.9562 3.90895 13.1196 3.74568 13.3055 3.74717C13.4914 3.74866 13.6586 3.91459 13.6607 4.09971C13.6628 4.28483 13.4995 4.4481 13.3135 4.44661ZM7.95659 9.37826C9.04065 9.38695 9.90939 8.51906 9.89713 7.4396C9.88487 6.36015 8.99626 5.47816 7.9122 5.46946C6.82813 5.46077 5.9594 6.32866 5.97166 7.40812C5.98392 8.48758 6.87253 9.36956 7.95659 9.37826Z" fill="url(#paint0_linear_710_38084)"/>
<defs>
<linearGradient id="paint0_linear_710_38084" x1="1.02803" y1="13.1177" x2="16.5896" y2="9.14581" gradientUnits="userSpaceOnUse">
<stop stop-color="#BA54EC"/>
<stop offset="1" stop-color="#F27B52"/>
</linearGradient>
</defs>
</svg>
