<svg width="20" height="21" viewBox="0 0 20 21" fill="none" xmlns="http://www.w3.org/2000/svg">
<path d="M9.99996 18.8327C5.39746 18.8327 1.66663 15.1018 1.66663 10.4993C1.66663 5.89685 5.39746 2.16602 9.99996 2.16602C14.6025 2.16602 18.3333 5.89685 18.3333 10.4993C18.3333 15.1018 14.6025 18.8327 9.99996 18.8327ZM9.99996 17.166C11.7681 17.166 13.4638 16.4636 14.714 15.2134C15.9642 13.9632 16.6666 12.2675 16.6666 10.4993C16.6666 8.73124 15.9642 7.03555 14.714 5.7853C13.4638 4.53506 11.7681 3.83268 9.99996 3.83268C8.23185 3.83268 6.53616 4.53506 5.28591 5.7853C4.03567 7.03555 3.33329 8.73124 3.33329 10.4993C3.33329 12.2675 4.03567 13.9632 5.28591 15.2134C6.53616 16.4636 8.23185 17.166 9.99996 17.166ZM10.8333 10.4993H14.1666V12.166H9.16663V6.33268H10.8333V10.4993Z" fill="#D7D7D7"/>
</svg>
