<svg width="22" height="11" viewBox="0 0 22 11" fill="none" xmlns="http://www.w3.org/2000/svg">
<rect width="8" height="10.9091" fill="black" fill-opacity="0.3"/>
<g clip-path="url(#clip0_710_38092)">
<path d="M3.0688 7.92348C3.55838 7.92348 3.95572 7.55562 3.95572 7.10236V6.28125H3.0688C2.57922 6.28125 2.18188 6.64911 2.18188 7.10236C2.18188 7.55562 2.57922 7.92348 3.0688 7.92348Z" fill="#0ACF83"/>
<path d="M2.18225 5.41877C2.18225 4.96552 2.57959 4.59766 3.06917 4.59766H3.95609V6.23988H3.06917C2.57959 6.23988 2.18225 5.87202 2.18225 5.41877Z" fill="#A259FF"/>
<path d="M2.18237 3.73518C2.18237 3.28192 2.57971 2.91406 3.06929 2.91406H3.95621V4.55629H3.06929C2.57971 4.55629 2.18237 4.18843 2.18237 3.73518Z" fill="#F24E1E"/>
<path d="M4.00012 2.91406H4.88704C5.37662 2.91406 5.77396 3.28192 5.77396 3.73518C5.77396 4.18843 5.37662 4.55629 4.88704 4.55629H4.00012V2.91406Z" fill="#FF7262"/>
<path d="M5.77396 5.41877C5.77396 5.87202 5.37662 6.23988 4.88704 6.23988C4.39746 6.23988 4.00012 5.87202 4.00012 5.41877C4.00012 4.96552 4.39746 4.59766 4.88704 4.59766C5.37662 4.59766 5.77396 4.96552 5.77396 5.41877Z" fill="#1ABCFE"/>
</g>
<path d="M12.6625 4.66226C12.6473 5.58031 11.8906 6.32453 10.9725 6.32453C10.0543 6.32453 9.32233 5.58031 9.33755 4.66226C9.35277 3.74422 10.1094 3 11.0276 3C11.9458 3 12.6778 3.74422 12.6625 4.66226Z" fill="#65FEB7"/>
<g clip-path="url(#clip1_710_38092)">
<path d="M10.7971 4.97014L11.7218 4.06055L11.8595 4.20045L10.7924 5.24996L10.1731 4.62027L10.3153 4.48037L10.7971 4.97014Z" fill="#5C5C41"/>
</g>
<rect x="14" width="8.00002" height="10.9091" fill="black" fill-opacity="0.3"/>
<path d="M15.1714 1.74237C15.174 1.58263 15.3057 1.45312 15.4654 1.45312H20.6726C20.8324 1.45312 20.9597 1.58263 20.9571 1.74237C20.9545 1.90212 20.8228 2.03162 20.663 2.03162H15.4558C15.2961 2.03162 15.1687 1.90212 15.1714 1.74237Z" fill="#65FEB7"/>
<path d="M15.0818 7.14081C15.0844 6.98106 15.2161 6.85156 15.3758 6.85156H20.583C20.7428 6.85156 20.8701 6.98106 20.8675 7.14081C20.8649 7.30056 20.7332 7.43006 20.5734 7.43006H15.3662C15.2065 7.43006 15.0791 7.30056 15.0818 7.14081Z" fill="#65FEB7"/>
<path d="M18.2119 4.4455C18.2145 4.28575 18.3462 4.15625 18.506 4.15625H20.6274C20.7872 4.15625 20.9145 4.28575 20.9119 4.4455C20.9092 4.60524 20.7776 4.73475 20.6178 4.73475H18.4964C18.3366 4.73475 18.2092 4.60524 18.2119 4.4455Z" fill="#F27B50"/>
<path d="M17.5662 8.49237C17.5689 8.33263 17.7006 8.20312 17.8603 8.20312H19.9818C20.1415 8.20312 20.2689 8.33263 20.2663 8.49237C20.2636 8.65212 20.1319 8.78162 19.9722 8.78162H17.8507C17.691 8.78162 17.5636 8.65212 17.5662 8.49237Z" fill="#BA54EC"/>
<path d="M17.463 3.09394C17.4656 2.93419 17.3383 2.80469 17.1785 2.80469H15.4428C15.283 2.80469 15.1513 2.93419 15.1487 3.09394C15.146 3.25368 15.2734 3.38318 15.4332 3.38318H17.1689C17.3287 3.38318 17.4603 3.25368 17.463 3.09394Z" fill="#F27B50"/>
<path d="M17.4405 4.4455C17.4432 4.28575 17.3158 4.15625 17.156 4.15625H15.4203C15.2605 4.15625 15.1289 4.28575 15.1262 4.4455C15.1236 4.60524 15.2509 4.73475 15.4107 4.73475H17.1464C17.3062 4.73475 17.4379 4.60524 17.4405 4.4455Z" fill="#BA54EC"/>
<path d="M19.3475 5.78925C19.3501 5.6295 19.2228 5.5 19.063 5.5H15.3987C15.2389 5.5 15.1073 5.6295 15.1046 5.78925C15.102 5.94899 15.2293 6.0785 15.3891 6.0785H19.0534C19.2132 6.0785 19.3448 5.94899 19.3475 5.78925Z" fill="#F27B50"/>
<path d="M19.9707 3.10175C19.9733 2.942 19.8459 2.8125 19.6862 2.8125H18.529C18.3693 2.8125 18.2376 2.942 18.2349 3.10175C18.2323 3.26149 18.3597 3.391 18.5194 3.391H19.6766C19.8364 3.391 19.968 3.26149 19.9707 3.10175Z" fill="#65FEB7"/>
<path d="M16.7949 8.49237C16.7975 8.33263 16.6702 8.20312 16.5104 8.20312H15.3532C15.1935 8.20312 15.0618 8.33263 15.0592 8.49237C15.0565 8.65212 15.1839 8.78162 15.3437 8.78162H16.5008C16.6606 8.78162 16.7922 8.65212 16.7949 8.49237Z" fill="#65FEB7"/>
<defs>
<clipPath id="clip0_710_38092">
<rect width="3.63636" height="5.09091" fill="white" transform="translate(2.18188 2.91406)"/>
</clipPath>
<clipPath id="clip1_710_38092">
<rect width="2.37499" height="2.37499" fill="white" transform="matrix(1 0 -0.0165799 0.999863 9.8324 3.46875)"/>
</clipPath>
</defs>
</svg>
