<svg width="9" height="8" viewBox="0 0 9 8" fill="none" xmlns="http://www.w3.org/2000/svg">
<path fill-rule="evenodd" clip-rule="evenodd" d="M5.20721 6.98592C6.37233 6.98592 7.37307 6.24368 7.8075 5.1831H8.83136C8.35303 6.81466 6.91137 8 5.20721 8C3.50304 8 2.06139 6.81466 1.58306 5.1831H2.60691C3.04135 6.24368 4.04209 6.98592 5.20721 6.98592ZM5.20721 1.01408C4.04209 1.01408 3.04135 1.75632 2.60691 2.8169H1.58306C2.06139 1.18534 3.50304 0 5.20721 0C6.91137 0 8.35303 1.18534 8.83136 2.8169H8.83181C8.97641 3.34598 9 3.75544 9 3.94366C9 4.24385 8.97641 4.45128 8.97641 4.45128H0L0.747874 3.46383H4.87769H6.95523H7.99337C7.99337 3.46383 7.93161 3.09859 7.80766 2.8169H7.8075C7.37307 1.75632 6.37233 1.01408 5.20721 1.01408Z" fill="#65FEB7"/>
</svg>
