<svg width="12" height="17" viewBox="0 0 12 17" fill="none" xmlns="http://www.w3.org/2000/svg">
<g clip-path="url(#clip0_4965_10663)">
<path d="M2.9409 16.7323C4.47958 16.7323 5.72836 15.5349 5.72836 14.0595V11.3867H2.9409C1.40222 11.3867 0.153442 12.5841 0.153442 14.0595C0.153442 15.5349 1.40222 16.7323 2.9409 16.7323Z" fill="#0ACF83"/>
<path d="M0.154419 8.58101C0.154419 7.10562 1.4032 5.9082 2.94188 5.9082H5.72933V11.2538H2.94188C1.4032 11.2538 0.154419 10.0564 0.154419 8.58101Z" fill="#A259FF"/>
<path d="M0.154419 3.10054C0.154419 1.62515 1.4032 0.427734 2.94188 0.427734H5.72933V5.77335H2.94188C1.4032 5.77335 0.154419 4.57594 0.154419 3.10054Z" fill="#F24E1E"/>
<path d="M5.86768 0.427734H8.65513C10.1938 0.427734 11.4426 1.62515 11.4426 3.10054C11.4426 4.57593 10.1938 5.77335 8.65513 5.77335H5.86768V0.427734Z" fill="#FF7262"/>
<path d="M11.4426 8.58101C11.4426 10.0564 10.1938 11.2538 8.65513 11.2538C7.11646 11.2538 5.86768 10.0564 5.86768 8.58101C5.86768 7.10562 7.11646 5.9082 8.65513 5.9082C10.1938 5.9082 11.4426 7.10562 11.4426 8.58101Z" fill="#1ABCFE"/>
</g>
<defs>
<clipPath id="clip0_4965_10663">
<rect width="11.4286" height="16.5714" fill="white" transform="translate(0.153442 0.427734)"/>
</clipPath>
</defs>
</svg>
