<svg width="12" height="15" viewBox="0 0 12 15" fill="none" xmlns="http://www.w3.org/2000/svg">
<mask id="mask0_754_36879" style="mask-type:alpha" maskUnits="userSpaceOnUse" x="0" y="0" width="12" height="15">
<path d="M0.439738 13.1671L0.0005105 1.37241C-0.0139954 0.982878 0.282373 0.652753 0.668409 0.628437L10.623 0.00142346C11.0159 -0.0233268 11.3544 0.277634 11.3789 0.673639C11.3799 0.688558 11.3803 0.703504 11.3803 0.718453V13.5709C11.3803 13.9676 11.0612 14.2893 10.6674 14.2893C10.6568 14.2893 10.6461 14.2891 10.6355 14.2886L1.12012 13.8579C0.749534 13.8411 0.45365 13.5407 0.439738 13.1671Z" fill="white"/>
</mask>
<g mask="url(#mask0_754_36879)">
<path d="M0.439738 13.1671L0.0005105 1.37241C-0.0139954 0.982878 0.282373 0.652753 0.668409 0.628437L10.623 0.00142346C11.0159 -0.0233268 11.3544 0.277634 11.3789 0.673639C11.3799 0.688558 11.3803 0.703504 11.3803 0.718453V13.5709C11.3803 13.9676 11.0612 14.2893 10.6674 14.2893C10.6568 14.2893 10.6461 14.2891 10.6355 14.2886L1.12012 13.8579C0.749534 13.8411 0.45365 13.5407 0.439738 13.1671Z" fill="#FF4785"/>
<path d="M8.40351 1.75638L8.47151 0.10825L9.83857 0L9.89746 1.69966C9.89951 1.75881 9.85359 1.80844 9.7949 1.81051C9.76977 1.81139 9.74514 1.80327 9.72538 1.78759L9.1982 1.36905L8.57403 1.84622C8.52724 1.88199 8.46053 1.87276 8.42504 1.8256C8.4101 1.80575 8.40249 1.78128 8.40351 1.75638ZM6.65517 5.38583C6.65517 5.66534 8.52335 5.53138 8.77413 5.33504C8.77413 3.43164 7.76072 2.43144 5.90498 2.43144C4.04925 2.43144 3.00951 3.44721 3.00951 4.97086C3.00951 7.62456 6.56304 7.67535 6.56304 9.12282C6.56304 9.52913 6.36562 9.77037 5.9313 9.77037C5.36537 9.77037 5.14163 9.47909 5.16795 8.48872C5.16795 8.27387 3.00951 8.20689 2.9437 8.48872C2.77613 10.8887 4.25983 11.581 5.95763 11.581C7.60278 11.581 8.89258 10.6973 8.89258 9.09742C8.89258 6.25327 5.2864 6.32945 5.2864 4.92007C5.2864 4.3487 5.70756 4.27252 5.95763 4.27252C6.22085 4.27252 6.69466 4.31927 6.65517 5.38583Z" fill="white"/>
</g>
</svg>
