<svg xmlns="http://www.w3.org/2000/svg" width="48" height="48" viewBox="0 0 48 48" fill="none">
<g filter="url(#filter0_b_593_25698)">
<g clip-path="url(#clip0_593_25698)">
<path d="M0 24C0 10.7452 10.7452 0 24 0C37.2548 0 48 10.7452 48 24C48 37.2548 37.2548 48 24 48C10.7452 48 0 37.2548 0 24Z" fill="black" fill-opacity="0.4"/>
<g clip-path="url(#clip1_593_25698)">
<path d="M19.4114 35.5985C21.7194 35.5985 23.5926 33.8024 23.5926 31.5893V27.5801H19.4114C17.1034 27.5801 15.2302 29.3762 15.2302 31.5893C15.2302 33.8024 17.1034 35.5985 19.4114 35.5985Z" fill="#0ACF83"/>
<path d="M15.2317 23.3705C15.2317 21.1575 17.1049 19.3613 19.4129 19.3613H23.5941V27.3798H19.4129C17.1049 27.3798 15.2317 25.5836 15.2317 23.3705Z" fill="#A259FF"/>
<path d="M15.2317 15.1518C15.2317 12.9387 17.1049 11.1426 19.4129 11.1426H23.5941V19.161H19.4129C17.1049 19.161 15.2317 17.3649 15.2317 15.1518Z" fill="#F24E1E"/>
<path d="M23.8016 11.1426H27.9828C30.2908 11.1426 32.164 12.9387 32.164 15.1518C32.164 17.3649 30.2908 19.161 27.9828 19.161H23.8016V11.1426Z" fill="#FF7262"/>
<path d="M32.164 23.3705C32.164 25.5836 30.2908 27.3798 27.9828 27.3798C25.6748 27.3798 23.8016 25.5836 23.8016 23.3705C23.8016 21.1575 25.6748 19.3613 27.9828 19.3613C30.2908 19.3613 32.164 21.1575 32.164 23.3705Z" fill="#1ABCFE"/>
</g>
</g>
</g>
<defs>
<filter id="filter0_b_593_25698" x="-4" y="-4" width="56" height="56" filterUnits="userSpaceOnUse" color-interpolation-filters="sRGB">
<feFlood flood-opacity="0" result="BackgroundImageFix"/>
<feGaussianBlur in="BackgroundImage" stdDeviation="2"/>
<feComposite in2="SourceAlpha" operator="in" result="effect1_backgroundBlur_593_25698"/>
<feBlend mode="normal" in="SourceGraphic" in2="effect1_backgroundBlur_593_25698" result="shape"/>
</filter>
<clipPath id="clip0_593_25698">
<path d="M0 24C0 10.7452 10.7452 0 24 0C37.2548 0 48 10.7452 48 24C48 37.2548 37.2548 48 24 48C10.7452 48 0 37.2548 0 24Z" fill="white"/>
</clipPath>
<clipPath id="clip1_593_25698">
<rect width="17.1429" height="24.8571" fill="white" transform="translate(15.2302 11.1426)"/>
</clipPath>
</defs>
</svg>