<svg xmlns="http://www.w3.org/2000/svg" width="41" height="41" viewBox="0 0 41 41" fill="none">
<path d="M0 20.5C0 9.17816 9.17816 0 20.5 0C31.8218 0 41 9.17816 41 20.5C41 31.8218 31.8218 41 20.5 41C9.17816 41 0 31.8218 0 20.5Z" fill="#030219"/>
<g clip-path="url(#clip0_554_35855)">
<path d="M16.5806 30.4077C18.552 30.4077 20.152 28.8735 20.152 26.9831V23.5586H16.5806C14.6092 23.5586 13.0092 25.0928 13.0092 26.9831C13.0092 28.8735 14.6092 30.4077 16.5806 30.4077Z" fill="#0ACF83"/>
<path d="M13.0104 19.9636C13.0104 18.0733 14.6104 16.5391 16.5818 16.5391H20.1532V23.3881H16.5818C14.6104 23.3881 13.0104 21.8539 13.0104 19.9636Z" fill="#A259FF"/>
<path d="M13.0105 12.9421C13.0105 11.0518 14.6105 9.51758 16.5819 9.51758H20.1534V16.3667H16.5819C14.6105 16.3667 13.0105 14.8325 13.0105 12.9421Z" fill="#F24E1E"/>
<path d="M20.3306 9.51758H23.902C25.8734 9.51758 27.4734 11.0518 27.4734 12.9421C27.4734 14.8325 25.8734 16.3667 23.902 16.3667H20.3306V9.51758Z" fill="#FF7262"/>
<path d="M27.4734 19.9636C27.4734 21.8539 25.8734 23.3881 23.902 23.3881C21.9306 23.3881 20.3306 21.8539 20.3306 19.9636C20.3306 18.0733 21.9306 16.5391 23.902 16.5391C25.8734 16.5391 27.4734 18.0733 27.4734 19.9636Z" fill="#1ABCFE"/>
</g>
<defs>
<clipPath id="clip0_554_35855">
<rect width="14.6429" height="21.2321" fill="white" transform="translate(13.0092 9.51758)"/>
</clipPath>
</defs>
</svg>