<svg width="21" height="21" viewBox="0 0 21 21" fill="none" xmlns="http://www.w3.org/2000/svg">
<rect opacity="0.4" width="5.56877" height="7.15984" transform="matrix(0.928529 -0.508599 0.393182 0.869452 5.85864 10.6895)" fill="white"/>
<path d="M17.7555 4.34743H11.4387L9.85658 3.07335C9.73216 2.96963 9.57513 2.91602 9.41053 2.91602H4.88327C4.48954 2.91602 4.16487 3.23457 4.16161 3.63178L4.144 5.77896H6.17323C6.48531 5.77896 6.79134 5.88203 7.03476 6.06934L8.07399 6.85247H16.0099C16.6944 6.85247 17.2811 7.33718 17.4048 8.00507L18.3988 13.1878L18.4655 5.0631C18.4687 4.66589 18.1528 4.34733 17.7555 4.34733L17.7555 4.34743Z" fill="url(#paint0_linear_710_38061)"/>
<path d="M17.7555 4.34743H11.4387L9.85658 3.07335C9.73216 2.96963 9.57513 2.91602 9.41053 2.91602H4.88327C4.48954 2.91602 4.16487 3.23457 4.16161 3.63178L4.144 5.77896H6.17323C6.48531 5.77896 6.79134 5.88203 7.03476 6.06934L8.07399 6.85247H16.0099C16.6944 6.85247 17.2811 7.33718 17.4048 8.00507L18.3988 13.1878L18.4655 5.0631C18.4687 4.66589 18.1528 4.34733 17.7555 4.34733L17.7555 4.34743Z" fill="black" fill-opacity="0.5"/>
<path d="M16.7007 8.14037C16.6391 7.80753 16.3439 7.5678 16.0039 7.5678H7.82975L6.59545 6.63732C6.47458 6.54425 6.32116 6.49414 6.1672 6.49414H2.42025C2.20553 6.49414 2.00434 6.58709 1.86697 6.74818C1.7297 6.91278 1.67059 7.12399 1.70833 7.33504L3.29259 16.6398C3.35068 16.9798 3.64566 17.2303 3.9929 17.2303H17.571C17.7857 17.2303 17.9906 17.1338 18.1279 16.9655C18.2651 16.8009 18.3207 16.5826 18.2794 16.3715L16.7007 8.14037ZM12.0279 13.0101L10.2241 14.7993C10.1907 14.8324 10.1509 14.8586 10.1069 14.8768C10.063 14.8948 10.0164 14.9043 9.96982 14.9043C9.92321 14.9043 9.87695 14.8948 9.83335 14.8766C9.78962 14.8585 9.75024 14.8322 9.71741 14.7991L7.94286 13.01C7.8042 12.8702 7.80605 12.6437 7.94701 12.5039C8.08796 12.3641 8.31448 12.3641 8.45304 12.5039L9.62183 13.6824L9.65303 9.89399C9.65465 9.69616 9.81616 9.53609 10.0139 9.53609C10.2116 9.53609 10.3705 9.69615 10.3689 9.89399L10.3378 13.6824L11.5259 12.5039C11.6669 12.3641 11.8934 12.3641 12.0319 12.5039C12.1707 12.6436 12.1689 12.87 12.0279 13.0098L12.0279 13.0101Z" fill="url(#paint1_linear_710_38061)"/>
<defs>
<linearGradient id="paint0_linear_710_38061" x1="4.12728" y1="8.05935" x2="18.4624" y2="8.17694" gradientUnits="userSpaceOnUse">
<stop stop-color="#F27B50"/>
<stop offset="1" stop-color="#BA54EC"/>
</linearGradient>
<linearGradient id="paint1_linear_710_38061" x1="1.66122" y1="11.87" x2="18.3559" y2="12.007" gradientUnits="userSpaceOnUse">
<stop stop-color="#F27B50"/>
<stop offset="1" stop-color="#BA54EC"/>
</linearGradient>
</defs>
</svg>
