<svg width="20" height="21" viewBox="0 0 20 21" fill="none" xmlns="http://www.w3.org/2000/svg">
<path d="M9.16663 6.33329H10.8333V7.99996H9.16663V6.33329ZM9.99996 14.6666C10.4583 14.6666 10.8333 14.2916 10.8333 13.8333V10.5C10.8333 10.0416 10.4583 9.66663 9.99996 9.66663C9.54163 9.66663 9.16663 10.0416 9.16663 10.5V13.8333C9.16663 14.2916 9.54163 14.6666 9.99996 14.6666ZM9.99996 2.16663C5.39996 2.16663 1.66663 5.89996 1.66663 10.5C1.66663 15.1 5.39996 18.8333 9.99996 18.8333C14.6 18.8333 18.3333 15.1 18.3333 10.5C18.3333 5.89996 14.6 2.16663 9.99996 2.16663ZM9.99996 17.1666C6.32496 17.1666 3.33329 14.175 3.33329 10.5C3.33329 6.82496 6.32496 3.83329 9.99996 3.83329C13.675 3.83329 16.6666 6.82496 16.6666 10.5C16.6666 14.175 13.675 17.1666 9.99996 17.1666Z" fill="white"/>
</svg>
