<svg width="20" height="21" viewBox="0 0 20 21" fill="none" xmlns="http://www.w3.org/2000/svg">
<path opacity="0.4" d="M18.3332 10.4993C18.3332 15.1027 14.6024 18.8327 9.99991 18.8327C5.39741 18.8327 1.66658 15.1027 1.66658 10.4993C1.66658 5.89768 5.39741 2.16602 9.99991 2.16602C14.6024 2.16602 18.3332 5.89768 18.3332 10.4993Z" fill="#65FEB7"/>
<path fill-rule="evenodd" clip-rule="evenodd" d="M10.725 11.0258C10.725 11.4274 10.3975 11.7549 9.99583 11.7549C9.59416 11.7549 9.26666 11.4274 9.26666 11.0258V7.34245C9.26666 6.94078 9.59416 6.61328 9.99583 6.61328C10.3975 6.61328 10.725 6.94078 10.725 7.34245V11.0258ZM9.27083 13.6698C9.27083 13.2681 9.59666 12.9406 9.99583 12.9406C10.4067 12.9406 10.7333 13.2681 10.7333 13.6698C10.7333 14.0714 10.4067 14.3989 10.0042 14.3989C9.6 14.3989 9.27083 14.0714 9.27083 13.6698Z" fill="#65FEB7"/>
</svg>
