<svg xmlns="http://www.w3.org/2000/svg" width="41" height="41" viewBox="0 0 41 41" fill="none">
<path d="M0 20.5C0 9.17816 9.17816 0 20.5 0C31.8218 0 41 9.17816 41 20.5C41 31.8218 31.8218 41 20.5 41C9.17816 41 0 31.8218 0 20.5Z" fill="#030219"/>
<path d="M13.8877 30.1926L12.9673 11.3242H12.277L12.9673 30.1926H13.8877Z" fill="#B57EE5"/>
<path d="M14.2712 30.1922L13.3508 11.3238L28.3842 10.25V30.8825L14.2712 30.1922Z" fill="#F1618C"/>
<path d="M24.5492 13.01L24.7409 10.4405L26.5434 10.2871V13.01L25.637 12.1901L24.5492 13.01Z" fill="white"/>
<path d="M22.1437 18.3256L25.1075 18.252C25.1811 15.3803 23.69 13.9629 21.0945 13.9629C18.4989 13.9629 17.0447 15.4355 17.0447 17.6445C17.0447 21.4918 22.0149 21.5655 22.0149 23.664C22.0149 24.253 21.7388 24.6028 21.1313 24.6028C20.3397 24.6028 20.0268 24.0874 20.0636 22.6515H16.9526C16.7133 26.2043 18.7935 27.0143 21.1681 27.0143C23.4691 27.0143 25.2731 25.9466 25.2731 23.6272C25.2731 19.5037 20.2293 19.6142 20.2293 17.5709C20.2293 16.7425 20.8184 16.6321 21.1681 16.6321C21.5363 16.6321 22.199 16.7793 22.1437 18.3256Z" fill="white"/>
</svg>