<svg xmlns="http://www.w3.org/2000/svg" width="48" height="48" viewBox="0 0 48 48" fill="none">
<g filter="url(#filter0_b_593_25697)">
<path d="M0 24C0 10.7452 10.7452 0 24 0V0C37.2548 0 48 10.7452 48 24V24C48 37.2548 37.2548 48 24 48V48C10.7452 48 0 37.2548 0 24V24Z" fill="black" fill-opacity="0.4"/>
<path d="M16.2588 35.3476L15.1812 13.2578H14.373L15.1812 35.3476H16.2588Z" fill="#B57EE5"/>
<path d="M16.7078 35.3469L15.6302 13.2571L33.2302 12V36.1551L16.7078 35.3469Z" fill="#F1618C"/>
<path d="M28.7406 15.2327L28.9651 12.2245L31.0753 12.0449V15.2327L30.0141 14.2728L28.7406 15.2327Z" fill="white"/>
<path d="M25.9245 21.4533L29.3942 21.3671C29.4804 18.0051 27.7348 16.3457 24.6961 16.3457C21.6574 16.3457 19.9548 18.0698 19.9548 20.6559C19.9548 25.1601 25.7736 25.2463 25.7736 27.7031C25.7736 28.3927 25.4504 28.8022 24.7392 28.8022C23.8125 28.8022 23.4461 28.1988 23.4892 26.5178H19.8471C19.5669 30.6771 22.0022 31.6254 24.7823 31.6254C27.4762 31.6254 29.5881 30.3754 29.5881 27.66C29.5881 22.8326 23.6832 22.9619 23.6832 20.5697C23.6832 19.5999 24.3728 19.4706 24.7823 19.4706C25.2133 19.4706 25.9891 19.643 25.9245 21.4533Z" fill="white"/>
</g>
<defs>
<filter id="filter0_b_593_25697" x="-4" y="-4" width="56" height="56" filterUnits="userSpaceOnUse" color-interpolation-filters="sRGB">
<feFlood flood-opacity="0" result="BackgroundImageFix"/>
<feGaussianBlur in="BackgroundImage" stdDeviation="2"/>
<feComposite in2="SourceAlpha" operator="in" result="effect1_backgroundBlur_593_25697"/>
<feBlend mode="normal" in="SourceGraphic" in2="effect1_backgroundBlur_593_25697" result="shape"/>
</filter>
</defs>
</svg>