<svg width="17" height="16" viewBox="0 0 17 16" fill="none" xmlns="http://www.w3.org/2000/svg">
<path d="M13.4862 7.57782L13.2594 9.71957C13.2371 9.92475 13.1342 10.1086 12.9714 10.2316L10.9203 11.7876C10.7551 11.9126 10.5427 11.9664 10.331 11.9349L7.51717 11.5217C7.51717 11.5217 5.38825 13.1101 4.12426 14.0563C2.95031 13.2263 2.01138 12.1025 1.41691 10.8147C2.69177 9.86963 4.87543 8.24476 4.87543 8.24476L5.15532 5.46611C5.17666 5.25527 5.28473 5.06624 5.4552 4.942L7.56727 3.39614C7.73498 3.27385 7.94941 3.22509 8.16293 3.26001L10.387 3.62565C10.5707 3.6558 10.7251 3.79149 10.7783 3.9689C10.8305 4.14697 10.7715 4.33176 10.6284 4.43795L8.29135 6.16709C8.08342 6.32054 8.05138 6.61856 8.22089 6.83121L8.90259 7.68848L9.09051 7.92435L9.76869 8.77775C9.93645 8.98837 10.2395 9.03349 10.4452 8.87892L12.7549 7.14635C12.8964 7.03994 13.093 7.03213 13.2539 7.12657C13.4134 7.2212 13.5056 7.39903 13.4862 7.57782Z" fill="url(#paint0_linear_710_38068)"/>
<circle r="7.625" transform="matrix(1 0 0.0165799 0.999863 8.13264 7.9989)" stroke="url(#paint1_linear_710_38068)" stroke-width="0.75"/>
<defs>
<linearGradient id="paint0_linear_710_38068" x1="11.052" y1="4.36548" x2="-5.48292" y2="15.8652" gradientUnits="userSpaceOnUse">
<stop stop-color="#F17A55"/>
<stop offset="1" stop-color="#65FEB7"/>
</linearGradient>
<linearGradient id="paint1_linear_710_38068" x1="13.4585" y1="2.50034" x2="2.09098" y2="13.3071" gradientUnits="userSpaceOnUse">
<stop stop-color="#EE7E58"/>
<stop offset="1" stop-color="#A2C68D"/>
</linearGradient>
</defs>
</svg>
